<?xml version="1.0" encoding="utf-8"?>
<!-- Generator: Adobe Illustrator 16.0.0, SVG Export Plug-In . SVG Version: 6.00 Build 0)  -->
<!DOCTYPE svg PUBLIC "-//W3C//DTD SVG 1.1//EN" "http://www.w3.org/Graphics/SVG/1.1/DTD/svg11.dtd">
<svg version="1.1" id="Layer_1" xmlns="http://www.w3.org/2000/svg" xmlns:xlink="http://www.w3.org/1999/xlink" x="0px" y="0px"
	 width="200px" height="200px" viewBox="0 0 200 200" enable-background="new 0 0 200 200" xml:space="preserve">
<g>
	<path fill-rule="evenodd" clip-rule="evenodd" d="M35.152,105.805c0-7.897,0-15.392,0-23.113c-3.84,0-7.566,0-11.46,0
		c-0.068-0.889-0.164-1.566-0.165-2.244c-0.009-10.342,0.05-20.686-0.054-31.027c-0.021-2.058,0.704-2.505,2.568-2.419
		c2.96,0.136,5.931,0.036,9.232,0.036c0-1.221,0-2.284,0-3.347c0-5.955,0.082-11.911-0.046-17.863
		c-0.042-1.937,0.621-2.408,2.419-2.332c3.031,0.128,6.072,0.035,9.381,0.035c0-3.407,0.069-6.597-0.03-9.779
		c-0.048-1.554,0.489-2.017,2.019-2.003c7.045,0.067,14.091,0.029,21.518,0.029c0-3.362,0.054-6.616-0.024-9.867
		C70.476,0.504,70.913-0.004,72.375,0c14.808,0.047,29.616,0.034,44.425,0.043c0.229,0,0.46,0.067,1.003,0.151
		c0,3.732,0,7.515,0,11.522c7.949,0,15.59,0,23.541,0c0,3.999,0,7.782,0,11.788c4.031,0,7.757,0,11.708,0c0,7.863,0,15.502,0,23.455
		c3.999,0,7.782,0,11.787,0c0,15.787,0,31.259,0,47.046c4,0,7.783,0,11.703,0c0,8.098,0,15.881,0,23.875c-3.84,0-7.566,0-11.503,0
		c0,3.929,0,7.656,0,11.677c-3.984,0-7.769,0-11.759,0c0,19.688,0,39.084,0,58.772c-3.98,0-7.768,0-11.759,0
		c0,4.015,0,7.741,0,11.67c-11.911,0-23.615,0-35.629,0c0-3.705,0-7.492,0-11.498c-4.028,0-7.755,0-11.788,0
		c0-3.996,0-7.784,0-11.787c-15.784,0-31.26,0-46.96,0c0-3.944,0-7.672,0-11.707c-3.999,0-7.783,0-11.788,0
		c0-11.865,0-23.426,0-35.294c-4,0-7.784,0-11.836,0c0-3.887,0-7.468,0-11.049c0-3.448,0.14-6.902-0.05-10.34
		c-0.12-2.171,0.668-2.671,2.672-2.562C29.091,105.924,32.055,105.805,35.152,105.805z M105.775,106.212
		c0-7.75-0.021-15.174,0.053-22.597c0.004-0.447,0.753-1.258,1.173-1.27c3.572-0.103,7.149-0.058,10.955-0.058
		c0,7.968,0,15.608,0,23.335c3.868,0,7.495,0,11.319,0c0-3.196,0.113-6.243-0.042-9.275c-0.098-1.918,0.591-2.433,2.413-2.356
		c3.089,0.131,6.188,0.036,9.382,0.036c0-3.452,0.098-6.508-0.037-9.554c-0.079-1.801,0.57-2.3,2.294-2.232
		c3.1,0.121,6.206,0.034,9.488,0.034c0-7.591,0.038-14.864-0.081-22.133c-0.008-0.501-1.155-1.364-1.814-1.406
		c-2.575-0.165-5.168-0.035-7.753-0.079c-1.622-0.028-2.239,0.75-2.212,2.299c0.039,2.193-0.129,4.398,0.038,6.579
		c0.175,2.298-0.719,2.933-2.95,2.917c-12.457-0.09-24.915-0.043-37.373-0.043c-5.171,0-10.343-0.05-15.513,0.025
		c-1.731,0.025-2.404-0.579-2.308-2.322c0.108-1.952,0.026-3.916,0.023-5.875c-0.005-3.572-0.007-3.577-3.69-3.58
		c-5.877-0.005-11.753-0.037-17.628,0.018c-1.598,0.015-2.275-0.522-2.209-2.178c0.094-2.347-0.051-4.703,0.043-7.05
		c0.071-1.771-0.526-2.621-2.4-2.559c-2.504,0.082-5.015,0.065-7.521,0.007c-1.783-0.041-2.585,0.707-2.543,2.515
		c0.056,2.427-0.03,4.858,0.014,7.286c0.025,1.392-0.544,1.992-1.95,1.966c-2.428-0.044-4.858,0.036-7.286-0.008
		c-1.493-0.026-2.072,0.549-2.015,2.093c0.104,2.816,0.029,5.64,0.029,8.46c0,4.284,0,8.568,0,13.17c4.054,0,7.84,0,11.845,0
		c0,4.046,0,7.771,0,11.729c3.959,0,7.685,0,11.723,0c0,4.017,0,7.799,0,11.532c3.897,0,7.471,0,11.267,0c0-0.984,0-1.827,0-2.67
		c0-6.189-0.037-12.38,0.051-18.568c0.01-0.707,0.691-1.995,1.107-2.014c3.574-0.161,7.158-0.093,10.803-0.093
		c0,8.117,0,15.957,0,24.02c-3.94,0-7.665,0-11.345,0c0,3.859,0,7.49,0,11.078c15.519,0,30.845,0,46.227,0c0-3.771,0-7.397,0-11.178
		C113.519,106.212,109.853,106.212,105.775,106.212z M106.442,176.005c11.576,0,22.887,0,34.27,0c0-11.508,0-22.822,0-34.257
		c-7.551,0-14.946,0-22.621,0c0,3.089-0.119,6.049,0.041,8.994c0.112,2.045-0.492,2.789-2.613,2.664
		c-3.007-0.176-6.032-0.044-9.076-0.044C106.442,161.117,106.442,168.459,106.442,176.005z M47.566,118.076
		c0,7.772,0,15.26,0,22.797c7.682,0,15.223,0,22.754,0c0-7.708,0-15.247,0-22.797C62.647,118.076,55.162,118.076,47.566,118.076z
		 M93.739,153.526c-15.501,0-30.72,0-46.015,0c0,3.643,0,7.119,0,10.646c15.427,0,30.701,0,46.015,0
		C93.739,160.541,93.739,157.12,93.739,153.526z M153.304,105.827c0,4.118,0,7.838,0,11.511c3.865,0,7.49,0,11.106,0
		c0-7.677,0-15.157,0-22.754c-7.662,0-15.199,0-22.804,0c0,3.759,0,7.384,0,11.244C145.475,105.827,149.194,105.827,153.304,105.827
		z M46.894,106.388c-3.858,0-7.482,0-11.098,0c0,3.754,0,7.323,0,10.996c3.746,0,7.368,0,11.098,0
		C46.894,113.668,46.894,110.101,46.894,106.388z"/>
	<path fill-rule="evenodd" clip-rule="evenodd" fill="#FFFFFF" d="M105.775,106.212c4.077,0,7.743,0,11.576,0
		c0,3.78,0,7.406,0,11.178c-15.382,0-30.708,0-46.227,0c0-3.588,0-7.219,0-11.078c3.68,0,7.405,0,11.345,0c0-8.063,0-15.903,0-24.02
		c-3.645,0-7.229-0.068-10.803,0.093c-0.416,0.019-1.097,1.307-1.107,2.014c-0.088,6.188-0.051,12.378-0.051,18.568
		c0,0.843,0,1.686,0,2.67c-3.796,0-7.37,0-11.267,0c0-3.733,0-7.515,0-11.532c-4.039,0-7.764,0-11.723,0c0-3.958,0-7.683,0-11.729
		c-4.005,0-7.792,0-11.845,0c0-4.602,0-8.886,0-13.17c0-2.82,0.076-5.644-0.029-8.46c-0.058-1.544,0.522-2.12,2.015-2.093
		c2.428,0.044,4.857-0.036,7.286,0.008c1.406,0.026,1.975-0.574,1.95-1.966c-0.044-2.428,0.042-4.858-0.014-7.286
		c-0.042-1.808,0.76-2.555,2.543-2.515c2.506,0.058,5.017,0.075,7.521-0.007c1.874-0.062,2.472,0.788,2.4,2.559
		c-0.095,2.347,0.051,4.703-0.043,7.05c-0.066,1.656,0.611,2.193,2.209,2.178c5.875-0.055,11.751-0.023,17.628-0.018
		c3.684,0.002,3.685,0.007,3.69,3.58c0.003,1.959,0.085,3.922-0.023,5.875c-0.097,1.743,0.577,2.348,2.308,2.322
		c5.17-0.075,10.342-0.025,15.513-0.025c12.458,0,24.916-0.047,37.373,0.043c2.231,0.016,3.125-0.619,2.95-2.917
		c-0.167-2.181,0.001-4.385-0.038-6.579c-0.027-1.55,0.59-2.328,2.212-2.299c2.585,0.044,5.178-0.085,7.753,0.079
		c0.659,0.042,1.807,0.905,1.814,1.406c0.119,7.27,0.081,14.542,0.081,22.133c-3.282,0-6.389,0.087-9.488-0.034
		c-1.724-0.067-2.373,0.432-2.294,2.232c0.135,3.046,0.037,6.102,0.037,9.554c-3.194,0-6.293,0.095-9.382-0.036
		c-1.822-0.077-2.511,0.438-2.413,2.356c0.155,3.033,0.042,6.079,0.042,9.275c-3.824,0-7.451,0-11.319,0c0-7.727,0-15.367,0-23.335
		c-3.806,0-7.383-0.044-10.955,0.058c-0.42,0.012-1.169,0.823-1.173,1.27C105.754,91.038,105.775,98.461,105.775,106.212z"/>
	<path fill-rule="evenodd" clip-rule="evenodd" fill="#FFFFFF" d="M106.442,176.005c0-7.546,0-14.888,0-22.643
		c3.044,0,6.069-0.132,9.076,0.044c2.121,0.125,2.726-0.619,2.613-2.664c-0.16-2.945-0.041-5.905-0.041-8.994
		c7.675,0,15.07,0,22.621,0c0,11.435,0,22.749,0,34.257C129.329,176.005,118.019,176.005,106.442,176.005z"/>
	<path fill-rule="evenodd" clip-rule="evenodd" fill="#FFFFFF" d="M47.566,118.076c7.596,0,15.081,0,22.754,0
		c0,7.55,0,15.089,0,22.797c-7.532,0-15.073,0-22.754,0C47.566,133.336,47.566,125.849,47.566,118.076z"/>
	<path fill-rule="evenodd" clip-rule="evenodd" fill="#FFFFFF" d="M93.739,153.526c0,3.594,0,7.015,0,10.646
		c-15.314,0-30.588,0-46.015,0c0-3.527,0-7.004,0-10.646C63.019,153.526,78.238,153.526,93.739,153.526z"/>
	<path fill-rule="evenodd" clip-rule="evenodd" fill="#FFFFFF" d="M153.304,105.827c-4.109,0-7.829,0-11.697,0
		c0-3.859,0-7.484,0-11.244c7.604,0,15.142,0,22.804,0c0,7.597,0,15.078,0,22.754c-3.616,0-7.241,0-11.106,0
		C153.304,113.665,153.304,109.945,153.304,105.827z"/>
	<path fill-rule="evenodd" clip-rule="evenodd" fill="#FFFFFF" d="M46.894,106.388c0,3.713,0,7.28,0,10.996
		c-3.73,0-7.352,0-11.098,0c0-3.673,0-7.242,0-10.996C39.412,106.388,43.036,106.388,46.894,106.388z"/>
</g>
</svg>
