<?xml version="1.0" encoding="utf-8"?>
<!-- Generator: Adobe Illustrator 16.0.0, SVG Export Plug-In . SVG Version: 6.00 Build 0)  -->
<!DOCTYPE svg PUBLIC "-//W3C//DTD SVG 1.1//EN" "http://www.w3.org/Graphics/SVG/1.1/DTD/svg11.dtd">
<svg version="1.1" id="Layer_1" xmlns="http://www.w3.org/2000/svg" xmlns:xlink="http://www.w3.org/1999/xlink" x="0px" y="0px"
	 width="200px" height="200px" viewBox="0 0 200 200" enable-background="new 0 0 200 200" xml:space="preserve">
<g>
	<path fill-rule="evenodd" clip-rule="evenodd" d="M150.339,100.194c0,8.361,0,16.323,0,24.618c4.034,0,8.052,0,12.304,0
		c0,12.604,0,24.879,0,37.484c4.248,0,8.268,0,12.417,0c0,4.378,0,8.426,0,12.786c-3.988,0-8.011,0-12.25,0c0,4.263,0,8.222,0,12.49
		c-4.229,0-8.251,0-12.49,0c0,4.264,0,8.222,0,12.389c-8.488,0-16.758,0-25.357,0c0-3.954,0-7.978,0-12.23
		c-4.279,0-8.236,0-12.519,0c0-4.245,0-8.267,0-12.402c-4.13,0-7.932,0-12.047,0c0,3.976,0,7.998,0,12.236
		c-8.425,0-16.543,0-24.972,0c0,4.228,0,8.251,0,12.436c-8.578,0-16.845,0-25.354,0c0-4.021,0-7.979,0-12.264
		c-4.247,0-8.266,0-12.518,0c0-12.602,0-24.88,0-37.397c-4.188,0-8.145,0-12.347,0c-0.083-0.925-0.201-1.633-0.202-2.341
		c-0.014-6.907,0.078-13.815-0.061-20.719c-0.042-2.107,0.743-2.515,2.602-2.445c3.218,0.122,6.444,0.034,9.798,0.034
		c0-8.277,0-16.297,0-24.557c-4.08,0-8.037,0-12.167,0c-0.071-0.946-0.172-1.666-0.173-2.387
		c-0.009-15.145,0.021-30.29-0.044-45.435c-0.008-1.889,0.393-2.687,2.47-2.573c3.223,0.178,6.463,0.047,10.051,0.047
		c0-1.299,0-2.428,0-3.557c0-6.324,0.086-12.65-0.049-18.972c-0.044-2.057,0.661-2.557,2.57-2.476
		c3.22,0.136,6.45,0.038,9.964,0.038c0-3.618,0.073-7.004-0.032-10.385c-0.051-1.647,0.514-2.145,2.142-2.129
		c7.482,0.07,14.966,0.031,22.858,0.031c0-3.567,0.056-7.022-0.026-10.475C74.87,0.55,75.319-0.004,76.88,0
		c15.644,0.047,31.289,0.029,46.933,0.039c0.396,0,0.791,0.1,1.41,0.184c0,4.061,0,8.016,0,12.212c8.351,0,16.466,0,24.91,0
		c0,4.246,0,8.264,0,12.519c4.281,0,8.235,0,12.519,0c0,8.412,0,16.588,0,25.001c4.281,0,8.237,0,12.369,0c0,4.347,0,8.452,0,12.783
		c-3.996,0-7.955,0-12.223,0c0,12.557,0,24.896,0,37.456C158.537,100.194,154.577,100.194,150.339,100.194z M149.803,99.744
		c0-12.087,0.025-23.969-0.085-35.85c-0.005-0.532-1.209-1.455-1.905-1.506c-2.566-0.188-5.155-0.14-7.732-0.072
		c-1.629,0.042-2.214-0.635-2.168-2.229c0.075-2.66-0.031-5.325,0.027-7.986c0.035-1.586-0.625-2.282-2.205-2.277
		c-7.072,0.021-14.145,0.021-21.216,0.002c-1.56-0.004-2.288,0.68-2.273,2.252c0.025,2.579-0.077,5.161,0.013,7.737
		c0.063,1.796-0.556,2.597-2.435,2.509c-2.241-0.105-4.491-0.035-6.738-0.018c-3.116,0.023-3.299,0.197-3.327,3.202
		c-0.022,2.329-0.075,4.661,0.012,6.988c0.066,1.755-0.687,2.364-2.375,2.307c-2.41-0.082-4.826-0.076-7.237-0.003
		c-1.617,0.048-2.234-0.607-2.183-2.214c0.079-2.493-0.072-4.996,0.044-7.486c0.093-2.017-0.62-2.909-2.708-2.819
		c-2.409,0.105-4.825,0.008-7.237,0.026C74.988,62.33,74.8,62.5,74.791,65.55c-0.019,6.24-0.082,12.481,0.033,18.72
		c0.041,2.216-0.558,3.222-2.937,3.037c-2.232-0.173-4.495,0.058-6.735-0.058c-2.203-0.114-2.967,0.851-2.874,2.961
		c0.106,2.408-0.045,4.827,0.04,7.237c0.062,1.737-0.653,2.377-2.357,2.326c-2.577-0.077-5.164-0.101-7.732,0.068
		c-0.64,0.042-1.732,0.887-1.753,1.4c-0.153,3.627-0.082,7.263-0.082,11.233c4.305,0,8.324,0,12.579,0c0,4.294,0,8.252,0,12.162
		c20.749,0,41.243,0,61.87,0c0-3.445,0.1-6.688-0.039-9.922c-0.08-1.884,0.557-2.468,2.414-2.393
		c3.293,0.134,6.596,0.037,9.919,0.037c0-4.177,0-8.028,0-12.133c-4.138,0-8.09,0-12.287,0c0-8.141-0.018-16.025,0.046-23.91
		c0.004-0.463,0.655-1.312,1.021-1.321c3.876-0.097,7.755-0.06,11.877-0.06c0,8.456,0,16.569,0,24.809
		C141.837,99.744,145.63,99.744,149.803,99.744z M125.415,149.66c8.247,0,16.199,0,24.223,0c0-8.159,0-16.168,0-24.18
		c-8.184,0-16.195,0-24.223,0C125.415,133.62,125.415,141.571,125.415,149.66z M38.095,125.405c0,8.248,0,16.259,0,24.269
		c3.986,0,7.778,0,11.686,0c0-8.144,0-16.151,0-24.269C45.834,125.405,42.042,125.405,38.095,125.405z M99.7,174.457
		c0-3.194-0.105-6.253,0.039-9.3c0.089-1.888-0.568-2.432-2.411-2.405c-6.571,0.092-13.145,0.029-19.717,0.049
		c-0.633,0.001-1.267,0.16-1.944,0.252c0,3.867,0,7.567,0,11.404C83.677,174.457,91.532,174.457,99.7,174.457z M124.55,163.042
		c-3.947,0-7.695,0-11.394,0c0,3.959,0,7.659,0,11.377c3.891,0,7.585,0,11.394,0C124.55,170.595,124.55,166.955,124.55,163.042z"/>
	<path fill-rule="evenodd" clip-rule="evenodd" fill="#FFFFFF" d="M149.803,99.744c-4.173,0-7.966,0-12.01,0
		c0-8.239,0-16.353,0-24.809c-4.122,0-8.001-0.037-11.877,0.06c-0.366,0.009-1.018,0.858-1.021,1.321
		c-0.063,7.884-0.046,15.769-0.046,23.91c4.197,0,8.149,0,12.287,0c0,4.104,0,7.956,0,12.133c-3.323,0-6.626,0.097-9.919-0.037
		c-1.857-0.075-2.494,0.509-2.414,2.393c0.139,3.233,0.039,6.477,0.039,9.922c-20.627,0-41.122,0-61.87,0c0-3.91,0-7.868,0-12.162
		c-4.255,0-8.274,0-12.579,0c0-3.971-0.072-7.606,0.082-11.233c0.021-0.513,1.114-1.358,1.753-1.4
		c2.569-0.169,5.156-0.145,7.732-0.068c1.705,0.051,2.419-0.589,2.357-2.326c-0.085-2.41,0.066-4.829-0.04-7.237
		c-0.093-2.111,0.671-3.075,2.874-2.961c2.241,0.116,4.503-0.115,6.735,0.058c2.379,0.186,2.977-0.821,2.937-3.037
		c-0.115-6.239-0.052-12.479-0.033-18.72c0.009-3.049,0.197-3.22,3.284-3.243c2.412-0.019,4.829,0.079,7.237-0.026
		c2.087-0.09,2.801,0.802,2.708,2.819c-0.116,2.49,0.035,4.993-0.044,7.486c-0.051,1.607,0.566,2.262,2.183,2.214
		c2.411-0.073,4.827-0.078,7.237,0.003c1.688,0.057,2.441-0.552,2.375-2.307c-0.087-2.327-0.034-4.659-0.012-6.988
		c0.028-3.005,0.211-3.178,3.327-3.202c2.247-0.018,4.497-0.088,6.738,0.018c1.879,0.088,2.498-0.713,2.435-2.509
		c-0.09-2.576,0.013-5.158-0.013-7.737c-0.015-1.572,0.714-2.256,2.273-2.252c7.071,0.019,14.144,0.018,21.216-0.002
		c1.58-0.005,2.24,0.691,2.205,2.277c-0.059,2.661,0.048,5.327-0.027,7.986c-0.046,1.594,0.539,2.271,2.168,2.229
		c2.577-0.068,5.166-0.116,7.732,0.072c0.696,0.051,1.9,0.975,1.905,1.506C149.828,75.774,149.803,87.656,149.803,99.744z"/>
	<path fill-rule="evenodd" clip-rule="evenodd" fill="#FFFFFF" d="M125.415,149.66c0-8.089,0-16.04,0-24.18
		c8.027,0,16.039,0,24.223,0c0,8.012,0,16.021,0,24.18C141.614,149.66,133.662,149.66,125.415,149.66z"/>
	<path fill-rule="evenodd" clip-rule="evenodd" fill="#FFFFFF" d="M38.095,125.405c3.947,0,7.739,0,11.686,0
		c0,8.117,0,16.125,0,24.269c-3.908,0-7.7,0-11.686,0C38.095,141.664,38.095,133.653,38.095,125.405z"/>
	<path fill-rule="evenodd" clip-rule="evenodd" fill="#FFFFFF" d="M99.7,174.457c-8.168,0-16.022,0-24.034,0
		c0-3.837,0-7.537,0-11.404c0.677-0.092,1.311-0.251,1.944-0.252c6.572-0.02,13.146,0.043,19.717-0.049
		c1.843-0.026,2.5,0.518,2.411,2.405C99.595,168.204,99.7,171.263,99.7,174.457z"/>
	<path fill-rule="evenodd" clip-rule="evenodd" fill="#FFFFFF" d="M124.55,163.042c0,3.913,0,7.553,0,11.377
		c-3.809,0-7.503,0-11.394,0c0-3.718,0-7.418,0-11.377C116.854,163.042,120.603,163.042,124.55,163.042z"/>
</g>
</svg>
