<?xml version="1.0" encoding="utf-8"?>
<!-- Generator: Adobe Illustrator 16.0.0, SVG Export Plug-In . SVG Version: 6.00 Build 0)  -->
<!DOCTYPE svg PUBLIC "-//W3C//DTD SVG 1.1//EN" "http://www.w3.org/Graphics/SVG/1.1/DTD/svg11.dtd">
<svg version="1.1" id="Layer_1" xmlns="http://www.w3.org/2000/svg" xmlns:xlink="http://www.w3.org/1999/xlink" x="0px" y="0px"
	 width="200px" height="200px" viewBox="0 0 200 200" enable-background="new 0 0 200 200" xml:space="preserve">
<g>
	<path fill-rule="evenodd" clip-rule="evenodd" d="M64.732,106.158c-4.115,0-7.838,0-11.783,0c0-3.944,0-7.671,0-11.703
		c-3.997,0-7.783,0-11.781,0c0-11.863,0-23.42,0-35.202c-3.942,0-7.667,0-11.782,0c0-3.931-0.044-7.652,0.083-11.367
		c0.01-0.305,1.179-0.799,1.819-0.816c3.188-0.084,6.378-0.039,9.817-0.039c0-5.234,0-10.225,0-15.214
		c0-2.116,0.086-4.235-0.027-6.344c-0.086-1.587,0.542-2.02,2.042-1.976c3.123,0.092,6.25,0.028,9.705,0.028c0-3.905,0-7.684,0-11.7
		c7.961,0,15.598,0,23.539,0c0-3.5,0.042-6.761-0.021-10.021C76.319,0.522,76.705-0.003,78.069,0
		c14.882,0.04,29.765,0.031,44.647,0.043c0.223,0,0.446,0.096,0.896,0.199c0,3.687,0,7.409,0,11.442c7.917,0,15.613,0,23.534,0
		c0,4.027,0,7.75,0,11.783c3.999,0,7.781,0,11.783,0c0,7.948,0,15.585,0,23.535c3.999,0,7.78,0,11.691,0c0,15.872,0,31.431,0,47.285
		c-3.74,0-7.525,0-11.515,0c0,4.013,0,7.739,0,11.756c-3.979,0-7.767,0-11.756,0c0,4.013,0,7.739,0,11.757
		c-3.982,0-7.767,0-11.698,0c0,3.924,0,7.558,0,11.426c3.75,0,7.472,0,11.396,0c0,11.926,0,23.624,0,35.614
		c-3.71,0-7.496,0-11.483,0c0,7.932,0,15.574,0,23.508c-3.979,0-7.767,0-11.756,0c0,4.013,0,7.74,0,11.651
		c-15.824,0-31.441,0-47.368,0c0-3.746,0-7.531,0-11.533c-4.028,0-7.753,0-11.69,0c-0.054-0.965-0.133-1.718-0.134-2.472
		c-0.01-6.267,0.101-12.536-0.063-18.798c-0.06-2.259,0.706-2.797,2.791-2.681c2.88,0.16,5.777,0.04,8.841,0.04
		c0-3.774,0-7.409,0-11.354c-3.745,0-7.528,0-11.575,0c0-4.042,0-7.78,0-11.519c0-3.289,0.143-6.588-0.05-9.866
		c-0.127-2.173,0.672-2.668,2.673-2.56c2.948,0.159,5.911,0.041,8.996,0.041c0-3.865,0-7.498,0-11.356c-3.825,0-7.55,0-11.497,0
		C64.732,113.999,64.732,110.272,64.732,106.158z M76.653,70.574c0.076-3.434,0.247-6.871,0.131-10.298
		c-0.019-0.561-1.263-1.48-2.001-1.545c-2.331-0.204-4.699-0.203-7.037-0.051c-2.127,0.14-2.746-0.718-2.625-2.728
		c0.141-2.34-0.004-4.696,0.035-7.043c0.023-1.389-0.603-2.009-1.966-2.003c-2.427,0.009-4.854-0.023-7.28-0.007
		c-2.956,0.019-3.236,0.241-3.173,3.251c0.121,5.771,0.433,11.539,0.497,17.31c0.089,7.984,0.022,15.97,0.022,23.955
		c0,0.824,0,1.649,0,2.474c3.932,0,7.503,0,11.329,0c0-0.963,0-1.802,0-2.64c0-6.028,0.106-12.059-0.055-18.082
		c-0.06-2.247,0.696-2.803,2.793-2.696c3.123,0.16,6.261,0.04,9.392,0.039c0,7.888,0,15.775,0,23.967c-4.002,0-7.786,0-11.509,0
		c0,3.939,0,7.569,0,11.432c3.922,0,7.647,0,11.601,0c0,3.962,0,7.685,0,11.44c19.536,0,38.831,0,58.292,0
		c0-3.06,0.12-5.954-0.04-8.833c-0.116-2.089,0.426-2.951,2.692-2.795c2.939,0.203,5.905,0.05,9.1,0.05
		c0-3.452-0.073-6.646,0.03-9.833c0.053-1.602-0.644-2.059-2.077-2.034c-2.271,0.039-4.546-0.068-6.814,0.022
		c-1.691,0.068-2.433-0.496-2.348-2.281c0.111-2.345-0.057-4.703,0.049-7.048c0.084-1.87-0.722-2.521-2.502-2.459
		c-2.19,0.076-4.393-0.089-6.578,0.045c-1.992,0.121-2.884-0.479-2.73-2.624c0.16-2.261-0.036-4.544,0.054-6.812
		c0.069-1.743-0.676-2.396-2.358-2.357c-2.585,0.06-5.172,0.061-7.755,0.003c-1.724-0.038-2.386,0.743-2.348,2.415
		c0.055,2.427-0.042,4.858,0.019,7.285c0.039,1.519-0.592,2.083-2.091,2.072c-6.268-0.043-12.534-0.038-18.802-0.005
		c-1.389,0.007-1.985-0.518-1.953-1.941c0.058-2.584-0.022-5.17,0.017-7.755c0.02-1.362-0.532-2.069-1.922-2.046
		C83.377,70.469,80.013,70.524,76.653,70.574z M88.618,164.343c7.763,0,15.303,0,22.852,0c0-7.675,0-15.159,0-22.751
		c-7.667,0-15.208,0-22.852,0C88.618,149.218,88.618,156.703,88.618,164.343z M77.065,165.201c0,3.747,0,7.225,0,10.822
		c3.63,0,7.102,0,10.661,0c0-3.695,0-7.228,0-10.822C84.105,165.201,80.687,165.201,77.065,165.201z M112.322,165.201
		c0,3.747,0,7.225,0,10.822c3.631,0,7.102,0,10.662,0c0-3.695,0-7.228,0-10.822C119.362,165.201,115.944,165.201,112.322,165.201z"
		/>
	<path fill-rule="evenodd" clip-rule="evenodd" fill="#FFFFFF" d="M76.649,70.578c3.364-0.054,6.729-0.109,10.093-0.163
		c1.391-0.022,1.942,0.685,1.922,2.046c-0.039,2.584,0.041,5.171-0.017,7.755c-0.032,1.424,0.564,1.948,1.953,1.941
		c6.268-0.033,12.534-0.038,18.802,0.005c1.499,0.01,2.13-0.553,2.091-2.072c-0.061-2.427,0.036-4.857-0.019-7.285
		c-0.038-1.672,0.624-2.453,2.348-2.415c2.583,0.057,5.17,0.057,7.755-0.003c1.683-0.039,2.428,0.614,2.358,2.357
		c-0.09,2.268,0.106,4.551-0.054,6.812c-0.153,2.144,0.738,2.745,2.73,2.624c2.186-0.134,4.388,0.031,6.578-0.045
		c1.78-0.062,2.586,0.589,2.502,2.459c-0.105,2.346,0.063,4.703-0.049,7.048c-0.085,1.785,0.656,2.349,2.348,2.281
		c2.269-0.091,4.544,0.016,6.814-0.022c1.434-0.024,2.13,0.433,2.077,2.034c-0.104,3.188-0.03,6.381-0.03,9.833
		c-3.194,0-6.16,0.153-9.1-0.05c-2.267-0.156-2.809,0.706-2.692,2.795c0.16,2.879,0.04,5.773,0.04,8.833
		c-19.462,0-38.757,0-58.292,0c0-3.756,0-7.479,0-11.44c-3.954,0-7.679,0-11.601,0c0-3.862,0-7.492,0-11.432
		c3.723,0,7.507,0,11.509,0c0-8.192,0-16.08,0-23.967L76.649,70.578z"/>
	<path fill-rule="evenodd" clip-rule="evenodd" fill="#FFFFFF" d="M76.716,70.508c-3.131,0.001-6.269,0.121-9.392-0.039
		c-2.097-0.107-2.853,0.449-2.793,2.696c0.162,6.023,0.055,12.054,0.055,18.082c0,0.838,0,1.677,0,2.64c-3.826,0-7.396,0-11.329,0
		c0-0.825,0-1.65,0-2.474c0-7.985,0.066-15.971-0.022-23.955c-0.064-5.771-0.376-11.539-0.497-17.31
		c-0.063-3.01,0.217-3.232,3.173-3.251c2.427-0.016,4.854,0.016,7.28,0.007c1.363-0.006,1.989,0.614,1.966,2.003
		c-0.04,2.348,0.106,4.704-0.035,7.043C65,57.962,65.62,58.82,67.747,58.68c2.338-0.152,4.706-0.153,7.037,0.051
		c0.738,0.065,1.982,0.984,2.001,1.545c0.115,3.427-0.056,6.864-0.134,10.3C76.649,70.578,76.716,70.508,76.716,70.508z"/>
	<path fill-rule="evenodd" clip-rule="evenodd" fill="#FFFFFF" d="M88.618,164.343c0-7.64,0-15.125,0-22.751
		c7.644,0,15.185,0,22.852,0c0,7.592,0,15.076,0,22.751C103.921,164.343,96.381,164.343,88.618,164.343z"/>
	<path fill-rule="evenodd" clip-rule="evenodd" fill="#FFFFFF" d="M77.065,165.201c3.621,0,7.04,0,10.661,0
		c0,3.595,0,7.127,0,10.822c-3.56,0-7.031,0-10.661,0C77.065,172.426,77.065,168.948,77.065,165.201z"/>
	<path fill-rule="evenodd" clip-rule="evenodd" fill="#FFFFFF" d="M112.322,165.201c3.622,0,7.04,0,10.662,0
		c0,3.595,0,7.127,0,10.822c-3.561,0-7.031,0-10.662,0C112.322,172.426,112.322,168.948,112.322,165.201z"/>
</g>
</svg>
