<?xml version="1.0" encoding="utf-8"?>
<!-- Generator: Adobe Illustrator 16.0.0, SVG Export Plug-In . SVG Version: 6.00 Build 0)  -->
<!DOCTYPE svg PUBLIC "-//W3C//DTD SVG 1.1//EN" "http://www.w3.org/Graphics/SVG/1.1/DTD/svg11.dtd">
<svg version="1.1" id="Layer_1" xmlns="http://www.w3.org/2000/svg" xmlns:xlink="http://www.w3.org/1999/xlink" x="0px" y="0px"
	 width="200px" height="200px" viewBox="0 0 200 200" enable-background="new 0 0 200 200" xml:space="preserve">
<g>
	<path fill-rule="evenodd" clip-rule="evenodd" d="M47.08,117.906c-4.064,0-7.731,0-11.705,0c0-3.914,0-7.701,0-11.705
		c-4.028,0-7.753,0-11.622,0c-0.089-0.803-0.213-1.399-0.214-1.997c-0.014-6.58,0.052-13.16-0.049-19.738
		c-0.028-1.802,0.566-2.291,2.288-2.22c3.042,0.125,6.093,0.035,9.47,0.035c0-11.74,0-23.349,0-35.2c4.044,0,7.765,0,11.782,0
		c0-3.502,0-6.764,0-10.025c0-3.838,0.057-7.678-0.027-11.514c-0.034-1.506,0.402-2.092,1.98-2.039
		c3.127,0.103,6.261,0.03,9.796,0.03c0-2.076,0-4.073,0-6.07c0-5.681,0-5.681,5.8-5.681c5.786,0,11.572,0,17.7,0
		c0-3.325,0.053-6.504-0.024-9.681C82.221,0.668,82.521-0.006,84.172,0c14.726,0.057,29.453,0.035,44.178,0.042
		c0.305,0,0.609,0.073,1.223,0.15c0,3.778,0,7.561,0,11.565c7.948,0,15.588,0,23.455,0c0,3.942,0,7.664,0,11.699
		c3.998,0,7.781,0,11.785,0c0,7.948,0,15.585,0,23.534c3.999,0,7.782,0,11.697,0c0,12.013,0,23.711,0,35.619
		c-3.847,0-7.572,0-11.507,0c0,3.929,0,7.656,0,11.675c-3.979,0-7.767,0-11.698,0c0,3.924,0,7.558,0,11.426
		c3.751,0,7.474,0,11.506,0c0,7.917,0,15.612,0,23.534c4.03,0,7.753,0,11.657,0c0,8.009,0,15.79,0,23.782c-3.722,0-7.447,0-11.466,0
		c0,3.981,0,7.769,0,11.758c-7.932,0-15.573,0-23.508,0c0,3.981,0,7.769,0,11.758c-11.848,0-23.406,0-35.257,0
		c0,3.981,0,7.769,0,11.757c-4.012,0-7.74,0-11.758,0c0,3.982,0,7.769,0,11.701c-11.992,0-23.69,0-35.616,0
		c0-3.809,0-7.535,0-11.566c-4,0-7.781,0-11.784,0C47.08,164.82,47.08,141.515,47.08,117.906z M70.819,94.068
		c0.077-3.418,0.237-6.839,0.147-10.253c-0.015-0.564-1.093-1.535-1.725-1.574c-2.795-0.173-5.609-0.139-8.41-0.02
		c-0.561,0.024-1.55,0.731-1.566,1.153c-0.127,3.475-0.072,6.957-0.072,10.629c4.081,0,7.885,0,11.688,0c0,3.876,0,7.751,0,11.855
		c4.126,0,7.848,0,11.879,0c0,4.005,0,7.784,0,11.514c15.628,0,30.936,0,46.192,0c0.121-0.265,0.236-0.399,0.237-0.536
		c0.03-2.111,0.058-4.223,0.062-6.334c0.008-4.747,0.003-4.747,4.633-4.747c2.315,0,4.63,0,7.073,0c0-4.151,0-7.972-0.001-11.794
		c3.877,0,7.754,0,11.794,0c0-3.564-0.05-6.838,0.022-10.109c0.032-1.457-0.776-1.696-1.913-1.696c-2.58,0-5.161,0.032-7.741-0.012
		c-1.603-0.027-2.261,0.712-2.227,2.276c0.07,3.203,0.09,6.407,0.13,9.61c-7.118-0.042-14.237-0.063-21.355-0.141
		c-1.771-0.02-2.316,0.852-2.283,2.471c0.05,2.424-0.027,4.852,0.013,7.276c0.023,1.351-0.457,2.019-1.899,2.011
		c-6.338-0.032-12.678-0.031-19.016,0.002c-1.416,0.008-1.949-0.578-1.919-1.971c0.055-2.58-0.022-5.164,0.015-7.746
		c0.02-1.373-0.565-2.036-1.942-2.025C85.362,93.966,78.088,94.019,70.819,94.068z M59.433,175.96c11.575,0,22.879,0,34.41,0
		c0-2.992,0.143-5.806-0.043-8.596c-0.157-2.338,0.551-3.098,2.987-3.077c13.7,0.114,27.401,0.056,41.102,0.056
		c0.909,0,1.817,0,2.794,0c0-3.822,0-7.299,0-11.019c-1.079,0-1.999,0-2.92,0c-21.529,0-43.059-0.034-64.588,0.049
		c-2.29,0.01-3.014-0.661-2.874-2.913c0.178-2.861,0.043-5.742,0.043-8.67c-3.828,0-7.36,0-10.91,0
		C59.433,153.259,59.433,164.512,59.433,175.96z M141.544,152.613c7.764,0,15.247,0,22.799,0c0-7.681,0-15.218,0-22.758
		c-7.702,0-15.242,0-22.799,0C141.544,137.516,141.544,145,141.544,152.613z M58.573,105.648c0-3.84,0-7.461,0-11.314
		c-3.895,0-7.61,0-11.639,0c0-4.005,0-7.78,0-11.526c-3.891,0-7.458,0-11.112,0c0,7.664,0,15.199,0,22.84
		C43.441,105.648,50.919,105.648,58.573,105.648z"/>
	<path fill-rule="evenodd" clip-rule="evenodd" fill="#FFFFFF" d="M59.433,175.96c0-11.448,0-22.701,0-34.17c3.55,0,7.083,0,10.91,0
		c0,2.928,0.135,5.809-0.043,8.67c-0.14,2.252,0.584,2.923,2.874,2.913c21.529-0.083,43.059-0.049,64.588-0.049
		c0.921,0,1.841,0,2.92,0c0,3.72,0,7.196,0,11.019c-0.977,0-1.885,0-2.794,0c-13.7,0-27.401,0.059-41.102-0.056
		c-2.436-0.021-3.144,0.739-2.987,3.077c0.186,2.79,0.043,5.604,0.043,8.596C82.312,175.96,71.007,175.96,59.433,175.96z"/>
	<path fill-rule="evenodd" clip-rule="evenodd" fill="#FFFFFF" d="M140.958,93.963c0,3.82,0,7.641,0,11.792
		c-2.443,0-4.758,0-7.073,0c-4.63,0-4.625,0-4.633,4.747c-0.004,2.111-0.031,4.223-0.062,6.334
		c-0.001,0.137-0.116,0.271-0.237,0.536c-15.256,0-30.564,0-46.192,0c0-3.729,0-7.509,0-11.514c-4.031,0-7.753,0-11.879,0
		c0-4.104,0-7.979,0-11.855l-0.067,0.07c7.273-0.054,14.547-0.106,21.82-0.166c1.377-0.011,1.962,0.652,1.942,2.025
		c-0.038,2.582,0.04,5.166-0.015,7.746c-0.03,1.393,0.503,1.979,1.919,1.971c6.338-0.033,12.678-0.034,19.016-0.002
		c1.442,0.008,1.923-0.66,1.899-2.011c-0.04-2.425,0.037-4.852-0.013-7.276c-0.033-1.619,0.512-2.49,2.283-2.471
		c7.118,0.078,14.237,0.099,21.355,0.141L140.958,93.963z"/>
	<path fill-rule="evenodd" clip-rule="evenodd" fill="#FFFFFF" d="M141.544,152.613c0-7.613,0-15.098,0-22.758
		c7.557,0,15.097,0,22.799,0c0,7.54,0,15.077,0,22.758C156.791,152.613,149.308,152.613,141.544,152.613z"/>
	<path fill-rule="evenodd" clip-rule="evenodd" fill="#FFFFFF" d="M58.573,105.648c-7.653,0-15.131,0-22.751,0
		c0-7.641,0-15.177,0-22.84c3.654,0,7.221,0,11.112,0c0,3.747,0,7.521,0,11.526c4.029,0,7.745,0,11.639,0
		C58.573,98.188,58.573,101.809,58.573,105.648z"/>
	<path fill-rule="evenodd" clip-rule="evenodd" fill="#FFFFFF" d="M70.882,94.003c-3.803,0-7.607,0-11.688,0
		c0-3.672-0.056-7.154,0.072-10.629c0.016-0.421,1.005-1.129,1.566-1.153c2.801-0.119,5.615-0.153,8.41,0.02
		c0.632,0.039,1.71,1.01,1.725,1.574c0.089,3.414-0.071,6.835-0.149,10.256C70.815,94.073,70.882,94.003,70.882,94.003z"/>
	<path fill-rule="evenodd" clip-rule="evenodd" fill="#FFFFFF" d="M141.022,94.029c-0.04-3.203-0.06-6.407-0.13-9.61
		c-0.034-1.564,0.624-2.303,2.227-2.276c2.58,0.044,5.161,0.012,7.741,0.012c1.137,0,1.945,0.24,1.913,1.696
		c-0.072,3.271-0.022,6.544-0.022,10.109c-4.04,0-7.917,0-11.793,0.001C140.958,93.963,141.022,94.029,141.022,94.029z"/>
</g>
</svg>
