<?xml version="1.0" encoding="utf-8"?>
<!-- Generator: Adobe Illustrator 16.0.0, SVG Export Plug-In . SVG Version: 6.00 Build 0)  -->
<!DOCTYPE svg PUBLIC "-//W3C//DTD SVG 1.1//EN" "http://www.w3.org/Graphics/SVG/1.1/DTD/svg11.dtd">
<svg version="1.1" id="Layer_1" xmlns="http://www.w3.org/2000/svg" xmlns:xlink="http://www.w3.org/1999/xlink" x="0px" y="0px"
	 width="200px" height="200px" viewBox="0 0 200 200" enable-background="new 0 0 200 200" xml:space="preserve">
<g>
	<path fill-rule="evenodd" clip-rule="evenodd" d="M33.48,44.449c3.659,0,7.173,0,10.958,0c0-3.605,0-6.981,0-10.358
		c0-3.329,0.059-6.659-0.027-9.985c-0.037-1.434,0.4-1.966,1.88-1.917c2.953,0.096,5.911,0.029,9.245,0.029
		c0-2.781-0.001-5.481,0-8.181c0.001-2.915,0.001-2.917,2.819-2.918c6.352-0.001,12.703,0,19.377,0c0-3.216,0.033-6.292-0.017-9.367
		C77.697,0.59,77.956-0.004,79.298,0c14.128,0.045,28.256,0.041,42.384,0.056c0.14,0,0.279,0.079,0.714,0.209
		c0,3.47,0,7.042,0,10.822c7.506,0,14.72,0,22.149,0c0,3.721,0,7.236,0,11.047c3.774,0,7.348,0,11.128,0c0,7.505,0,14.717,0,22.225
		c3.775,0,7.349,0,11.054,0c0,11.344,0,22.392,0,33.638c-3.605,0-7.125,0-10.918,0c0,3.762,0,7.337,0,11.103
		c-3.791,0-7.31,0-10.98,0c0,3.626,0,7.058,0,10.711c3.507,0,7.021,0,10.831,0c0,3.773,0,7.345,0,11.129c3.805,0,7.321,0,11.129,0
		c0,3.774,0,7.347,0,11.128c3.806,0,7.321,0,11.007,0c0,7.563,0,14.912,0,22.46c-3.517,0-7.036,0-10.831,0c0,3.759,0,7.335,0,11.103
		c-3.789,0-7.308,0-11.102,0c0,11.162,0,22.131,0,33.296c-3.787,0-7.307,0-11.102,0c0,3.76,0,7.335,0,11.058
		c-11.324,0-22.373,0-33.635,0c0-3.567,0-7.087,0-10.773c-7.343,0-14.475,0-21.886,0c0,3.508,0,7.084,0,10.789
		c-11.325,0-22.373,0-33.635,0c0-3.614,0-7.134,0-10.865c-3.723,0-7.24,0-11.048,0c0-11.175,0-22.142,0-33.316
		c-3.803,0-7.322,0-11.13,0c0-3.771,0-7.348,0-11.129c-3.804,0-7.321,0-10.975,0c-0.084-0.758-0.2-1.322-0.201-1.886
		c-0.013-6.214,0.049-12.428-0.046-18.641c-0.026-1.699,0.53-2.165,2.159-2.099c2.873,0.119,5.754,0.034,8.944,0.034
		c0-3.686,0-7.254,0-11.048c3.819,0,7.333,0,11.131,0c0-3.158,0.083-6.093-0.033-9.021c-0.063-1.618,0.377-2.242,2.092-2.165
		c2.932,0.132,5.874,0.037,8.923,0.037c0-3.618,0-6.996,0-10.667c-3.534,0-7.106,0-10.886,0c0-3.803,0-7.322,0-11.13
		c-3.774,0-7.35,0-11.054,0C33.48,66.823,33.48,55.832,33.48,44.449z M155.383,77.683c0-7.189,0.029-14.124-0.074-21.057
		c-0.006-0.418-1.052-1.141-1.646-1.176c-2.359-0.14-4.733-0.011-7.099-0.082c-1.688-0.051-2.441,0.612-2.386,2.342
		c0.07,2.217-0.042,4.44,0.025,6.657c0.046,1.487-0.465,2.13-2.036,2.127c-16.941-0.033-33.884-0.034-50.825,0.001
		c-1.578,0.003-2.075-0.631-2.017-2.124c0.081-2.068-0.096-4.15,0.049-6.211c0.152-2.139-0.666-2.856-2.787-2.816
		c-5.621,0.106-11.246-0.046-16.866,0.077c-2.08,0.045-2.745-0.67-2.606-2.684c0.147-2.135-0.014-4.29,0.042-6.434
		c0.037-1.417-0.57-2.032-1.969-2.017c-2.515,0.025-5.031,0.032-7.545-0.005c-1.61-0.024-2.268,0.736-2.239,2.304
		c0.04,2.145-0.091,4.296,0.03,6.435c0.106,1.884-0.678,2.48-2.466,2.384c-1.992-0.108-3.995,0.031-5.991-0.037
		c-1.555-0.053-2.225,0.422-2.198,2.144c0.096,6.139,0.033,12.281,0.045,18.421c0.001,0.559,0.114,1.117,0.197,1.881
		c3.682,0,7.2,0,10.935,0c0,3.74,0,7.256,0,11.072c3.791,0,7.364,0,11.148,0c0,3.82,0,7.338,0,10.803c3.657,0,7.084,0,10.605,0
		c0-1.002,0-1.813,0-2.624c0-5.771-0.034-11.542,0.045-17.311c0.01-0.688,0.613-1.943,0.984-1.959
		c3.437-0.152,6.883-0.09,10.288-0.09c0,7.718,0,15.071,0,22.632c-3.695,0-7.214,0-10.758,0c0,3.641,0,7.068,0,10.449
		c14.684,0,29.207,0,43.695,0c0-3.564,0-6.938,0-10.535c-3.647,0-7.163,0-10.945,0c0-7.303-0.016-14.381,0.047-21.458
		c0.003-0.368,0.668-1.037,1.037-1.045c3.379-0.082,6.76-0.048,10.439-0.048c0,7.529,0,14.798,0,22.053c3.679,0,7.053,0,10.656,0
		c0-2.913,0.114-5.711-0.038-8.494c-0.104-1.907,0.402-2.648,2.438-2.521c2.842,0.177,5.704,0.044,8.699,0.044
		c0-3.207,0.082-6.086-0.031-8.958c-0.063-1.615,0.385-2.252,2.099-2.175C149.241,77.776,152.127,77.683,155.383,77.683z
		 M111.539,177.285c11.033,0,21.714,0,32.456,0c0-10.869,0-21.555,0-32.34c-3.436,0-6.721,0-10.259,0
		c0,2.996-0.092,5.866,0.034,8.726c0.077,1.749-0.491,2.275-2.255,2.271c-20.937-0.055-41.873-0.054-62.809-0.001
		c-1.755,0.004-2.355-0.52-2.28-2.276c0.121-2.86,0.033-5.728,0.033-8.656c-3.609,0-6.947,0-10.228,0c0,10.889,0,21.576,0,32.271
		c10.863,0,21.544,0,32.426,0c0-3.133,0.046-6.082-0.02-9.026c-0.032-1.428,0.496-1.967,1.938-1.955
		c6.361,0.047,12.724,0.051,19.086-0.003c1.467-0.012,1.936,0.55,1.899,1.965C111.487,171.203,111.539,174.151,111.539,177.285z
		 M44.831,122.509c-3.872,0-7.384,0-10.981,0c0,7.322,0,14.439,0,21.612c7.248,0,14.363,0,21.657,0c0-10.951,0-21.752,0-32.624
		c-3.604,0-7.038,0-10.676,0C44.831,115.126,44.831,118.639,44.831,122.509z M144.799,111.461c0,11.025,0,21.846,0,32.62
		c7.345,0,14.468,0,21.563,0c0-7.259,0-14.328,0-21.703c-3.692,0-7.262,0-11.045,0c0-3.817,0-7.33,0-10.917
		C151.707,111.461,148.328,111.461,144.799,111.461z"/>
	<path fill-rule="evenodd" clip-rule="evenodd" fill="#FFFFFF" d="M155.383,77.683c-3.256,0-6.142,0.093-9.019-0.035
		c-1.714-0.077-2.161,0.56-2.099,2.175c0.113,2.872,0.031,5.75,0.031,8.958c-2.995,0-5.857,0.133-8.699-0.044
		c-2.035-0.127-2.542,0.614-2.438,2.521c0.152,2.783,0.038,5.581,0.038,8.494c-3.604,0-6.978,0-10.656,0c0-7.254,0-14.524,0-22.053
		c-3.68,0-7.061-0.034-10.439,0.048c-0.369,0.008-1.034,0.677-1.037,1.045c-0.063,7.077-0.047,14.155-0.047,21.458
		c3.782,0,7.298,0,10.945,0c0,3.597,0,6.97,0,10.535c-14.488,0-29.011,0-43.695,0c0-3.381,0-6.809,0-10.449
		c3.544,0,7.063,0,10.758,0c0-7.561,0-14.914,0-22.632c-3.405,0-6.851-0.063-10.288,0.09c-0.371,0.016-0.975,1.271-0.984,1.959
		c-0.079,5.77-0.045,11.541-0.045,17.311c0,0.811,0,1.622,0,2.624c-3.521,0-6.948,0-10.605,0c0-3.464,0-6.982,0-10.803
		c-3.784,0-7.357,0-11.148,0c0-3.816,0-7.332,0-11.072c-3.735,0-7.252,0-10.935,0c-0.083-0.764-0.196-1.322-0.197-1.881
		c-0.012-6.14,0.051-12.282-0.045-18.421c-0.027-1.722,0.643-2.197,2.198-2.144c1.996,0.067,3.999-0.071,5.991,0.037
		c1.788,0.097,2.573-0.5,2.466-2.384c-0.121-2.139,0.01-4.291-0.03-6.435c-0.028-1.567,0.629-2.328,2.239-2.304
		c2.515,0.038,5.03,0.031,7.545,0.005c1.398-0.015,2.005,0.6,1.969,2.017c-0.055,2.144,0.105,4.299-0.042,6.434
		c-0.139,2.014,0.526,2.729,2.606,2.684c5.62-0.123,11.245,0.03,16.866-0.077c2.122-0.04,2.939,0.678,2.787,2.816
		c-0.146,2.061,0.031,4.143-0.049,6.211c-0.058,1.493,0.439,2.127,2.017,2.124c16.941-0.035,33.884-0.035,50.825-0.001
		c1.571,0.003,2.082-0.64,2.036-2.127c-0.067-2.217,0.045-4.44-0.025-6.657c-0.056-1.729,0.697-2.393,2.386-2.342
		c2.365,0.07,4.739-0.058,7.099,0.082c0.594,0.035,1.64,0.757,1.646,1.176C155.412,63.559,155.383,70.494,155.383,77.683z"/>
	<path fill-rule="evenodd" clip-rule="evenodd" fill="#FFFFFF" d="M111.539,177.285c0-3.134-0.052-6.082,0.021-9.026
		c0.036-1.415-0.433-1.977-1.899-1.965c-6.362,0.054-12.725,0.05-19.086,0.003c-1.442-0.012-1.97,0.527-1.938,1.955
		c0.066,2.944,0.02,5.894,0.02,9.026c-10.882,0-21.563,0-32.426,0c0-10.694,0-21.382,0-32.271c3.28,0,6.618,0,10.228,0
		c0,2.929,0.088,5.796-0.033,8.656c-0.075,1.757,0.525,2.28,2.28,2.276c20.936-0.053,41.873-0.054,62.809,0.001
		c1.764,0.005,2.332-0.521,2.255-2.271c-0.126-2.859-0.034-5.729-0.034-8.726c3.538,0,6.823,0,10.259,0c0,10.785,0,21.471,0,32.34
		C133.253,177.285,122.572,177.285,111.539,177.285z"/>
	<path fill-rule="evenodd" clip-rule="evenodd" fill="#FFFFFF" d="M44.831,122.509c0-3.87,0-7.383,0-11.012
		c3.638,0,7.071,0,10.676,0c0,10.872,0,21.673,0,32.624c-7.294,0-14.409,0-21.657,0c0-7.173,0-14.29,0-21.612
		C37.447,122.509,40.959,122.509,44.831,122.509z"/>
	<path fill-rule="evenodd" clip-rule="evenodd" fill="#FFFFFF" d="M144.799,111.461c3.529,0,6.908,0,10.518,0
		c0,3.587,0,7.1,0,10.917c3.783,0,7.353,0,11.045,0c0,7.375,0,14.444,0,21.703c-7.095,0-14.218,0-21.563,0
		C144.799,133.307,144.799,122.486,144.799,111.461z"/>
</g>
</svg>
