<?xml version="1.0" encoding="utf-8"?>
<!-- Generator: Adobe Illustrator 16.0.0, SVG Export Plug-In . SVG Version: 6.00 Build 0)  -->
<!DOCTYPE svg PUBLIC "-//W3C//DTD SVG 1.1//EN" "http://www.w3.org/Graphics/SVG/1.1/DTD/svg11.dtd">
<svg version="1.1" id="Layer_1" xmlns="http://www.w3.org/2000/svg" xmlns:xlink="http://www.w3.org/1999/xlink" x="0px" y="0px"
	 width="200px" height="200px" viewBox="0 0 200 200" enable-background="new 0 0 200 200" xml:space="preserve">
<g>
	<path fill-rule="evenodd" clip-rule="evenodd" d="M47.091,129.656c-4.059,0-7.725,0-11.697,0c0-3.912,0-7.698,0-11.701
		c-4.025,0-7.751,0-11.625,0c-0.091-0.8-0.217-1.396-0.219-1.991c-0.014-6.578,0.049-13.157-0.048-19.733
		c-0.026-1.772,0.513-2.317,2.265-2.243c3.043,0.13,6.096,0.036,9.524,0.036c0-1.015,0-1.914,0-2.813
		c0-13.939,0.029-27.878-0.036-41.817c-0.008-1.796,0.399-2.516,2.335-2.411c3.033,0.163,6.081,0.043,9.45,0.043
		c0-2.247,0-4.329,0-6.411c0-4.855,0.115-9.714-0.053-14.564c-0.075-2.155,0.652-2.678,2.667-2.567
		c2.948,0.163,5.911,0.042,9.136,0.042c0-3.409,0.069-6.597-0.03-9.778c-0.049-1.554,0.492-2.015,2.02-2
		c7.042,0.066,14.084,0.029,21.51,0.029c0-3.357,0.052-6.609-0.024-9.858C82.232,0.519,82.654-0.004,84.123,0
		c14.722,0.044,29.446,0.027,44.167,0.036c0.373,0,0.745,0.091,1.328,0.167c0,3.823,0,7.544,0,11.494c7.859,0,15.495,0,23.442,0
		c0,3.994,0,7.776,0,11.779c4.029,0,7.752,0,11.781,0c0,7.916,0,15.61,0,23.529c4.026,0,7.749,0,11.644,0
		c0,11.924,0,23.619,0,35.524c-3.738,0-7.464,0-11.381,0c0,7.754,0,15.302,0,23.167c3.68,0,7.462,0,11.396,0
		c0,8.094,0,15.873,0,23.863c-3.784,0-7.511,0-11.524,0c0,11.817,0,23.43,0,35.249c-4.01,0-7.734,0-11.751,0c0,3.98,0,7.767,0,11.75
		c-15.762,0-31.233,0-46.996,0c0,3.978,0,7.764,0,11.75c-4.011,0-7.738,0-11.754,0c0,3.981,0,7.768,0,11.69
		c-11.989,0-23.685,0-35.608,0c0-3.823,0-7.548,0-11.579c-3.998,0-7.78,0-11.775,0C47.091,168.729,47.091,149.344,47.091,129.656z
		 M117.52,106.182c0-7.763-0.017-15.116,0.037-22.467c0.004-0.478,0.531-1.358,0.832-1.366c3.72-0.094,7.442-0.062,11.388-0.062
		c0,8.021,0,15.66,0,23.265c3.869,0,7.497,0,11.237,0c0-3.246,0.096-6.3-0.036-9.345c-0.078-1.788,0.547-2.311,2.282-2.242
		c3.1,0.123,6.207,0.035,9.504,0.035c0-3.351,0.112-6.396-0.041-9.427c-0.097-1.912,0.581-2.437,2.408-2.359
		c3.088,0.132,6.187,0.037,9.381,0.037c0-7.522-0.025-14.646,0.022-21.769c0.009-1.344-0.554-1.833-1.796-1.83
		c-2.585,0.008-5.171,0.039-7.754-0.021c-1.727-0.041-2.384,0.75-2.342,2.417c0.057,2.27-0.089,4.548,0.035,6.813
		c0.107,1.962-0.661,2.585-2.582,2.557c-6.108-0.088-12.219-0.032-18.328-0.032c-11.514,0-23.028-0.042-34.542,0.039
		c-2.053,0.014-2.832-0.603-2.675-2.682c0.153-2.025,0.041-4.071,0.03-6.107c-0.017-2.879-0.117-2.988-3.094-2.995
		c-6.031-0.013-12.062-0.047-18.093,0.02c-1.7,0.019-2.416-0.522-2.336-2.293c0.11-2.424-0.017-4.856,0.036-7.283
		c0.031-1.453-0.503-2.207-2.028-2.191c-2.741,0.029-5.483,0.025-8.224,0.005c-1.63-0.012-2.201,0.863-2.188,2.371
		c0.022,2.428-0.05,4.857,0.01,7.283c0.037,1.497-0.544,2.136-2.067,2.096c-2.348-0.062-4.7,0.042-7.048-0.021
		c-1.604-0.042-2.169,0.559-2.143,2.21c0.09,5.717,0.034,11.435,0.034,17.153c0,1.376,0,2.752,0,4.359c4.074,0,7.799,0,11.755,0
		c0,3.958,0,7.679,0,11.719c4.015,0,7.799,0,11.806,0c0,4.044,0,7.768,0,11.497c3.868,0,7.495,0,11.265,0c0-1.035,0-1.888,0-2.741
		c0-6.187-0.031-12.375,0.046-18.563c0.008-0.666,0.619-1.885,0.988-1.9c3.644-0.143,7.295-0.086,10.969-0.086
		c0,8.128,0,15.913,0,23.919c-3.893,0-7.617,0-11.428,0c0,3.853,0,7.48,0,11.122c15.526,0,30.902,0,46.3,0c0-3.755,0-7.325,0-11.135
		C125.298,106.182,121.576,106.182,117.52,106.182z M59.439,175.956c11.572,0,22.876,0,34.262,0c0-7.584,0-14.978,0-22.64
		c-3.177,0-6.214-0.103-9.239,0.038c-1.899,0.089-2.464-0.606-2.392-2.431c0.12-3.025,0.033-6.059,0.033-9.144
		c-7.744,0-15.191,0-22.664,0C59.439,153.246,59.439,164.5,59.439,175.956z M129.864,118.033c0,7.744,0,15.285,0,22.761
		c7.718,0,15.257,0,22.758,0c0-7.687,0-15.17,0-22.761C144.998,118.033,137.515,118.033,129.864,118.033z M106.441,164.169
		c15.488,0,30.703,0,46.006,0c0-3.643,0-7.118,0-10.647c-15.424,0-30.694,0-46.006,0
		C106.441,157.146,106.441,160.565,106.441,164.169z M35.781,117.301c3.878,0,7.501,0,11.234,0c0-3.24,0.091-6.288-0.036-9.326
		c-0.073-1.754,0.495-2.333,2.255-2.261c3.095,0.127,6.199,0.035,9.37,0.035c0-3.901,0-7.521,0-11.163c-7.692,0-15.223,0-22.824,0
		C35.781,102.225,35.781,109.701,35.781,117.301z M164.347,117.367c0-3.782,0-7.403,0-11.014c-3.792,0-7.415,0-11.04,0
		c0,3.749,0,7.317,0,11.014C156.99,117.367,160.557,117.367,164.347,117.367z"/>
	<path fill-rule="evenodd" clip-rule="evenodd" fill="#FFFFFF" d="M117.52,106.182c4.057,0,7.778,0,11.619,0c0,3.81,0,7.38,0,11.135
		c-15.398,0-30.774,0-46.3,0c0-3.642,0-7.27,0-11.122c3.811,0,7.536,0,11.428,0c0-8.006,0-15.791,0-23.919
		c-3.674,0-7.325-0.057-10.969,0.086c-0.369,0.015-0.979,1.234-0.988,1.9c-0.077,6.187-0.046,12.375-0.046,18.563
		c0,0.854,0,1.706,0,2.741c-3.77,0-7.397,0-11.265,0c0-3.729,0-7.453,0-11.497c-4.007,0-7.791,0-11.806,0c0-4.04,0-7.762,0-11.719
		c-3.956,0-7.681,0-11.755,0c0-1.607,0-2.983,0-4.359c0-5.718,0.056-11.436-0.034-17.153c-0.026-1.651,0.539-2.252,2.143-2.21
		c2.348,0.063,4.701-0.041,7.048,0.021c1.523,0.04,2.104-0.599,2.067-2.096c-0.06-2.426,0.012-4.855-0.01-7.283
		c-0.014-1.508,0.558-2.383,2.188-2.371c2.741,0.021,5.482,0.024,8.224-0.005c1.525-0.016,2.06,0.738,2.028,2.191
		c-0.053,2.427,0.074,4.859-0.036,7.283c-0.08,1.771,0.636,2.312,2.336,2.293c6.031-0.066,12.062-0.033,18.093-0.02
		c2.978,0.007,3.078,0.116,3.094,2.995c0.011,2.036,0.123,4.082-0.03,6.107c-0.157,2.08,0.622,2.696,2.675,2.682
		c11.514-0.081,23.029-0.039,34.542-0.039c6.109,0,12.22-0.057,18.328,0.032c1.921,0.028,2.689-0.595,2.582-2.557
		c-0.124-2.265,0.021-4.543-0.035-6.813c-0.042-1.668,0.615-2.458,2.342-2.417c2.583,0.06,5.169,0.029,7.754,0.021
		c1.242-0.004,1.805,0.485,1.796,1.83c-0.048,7.123-0.022,14.247-0.022,21.769c-3.194,0-6.293,0.096-9.381-0.037
		c-1.827-0.078-2.505,0.447-2.408,2.359c0.153,3.031,0.041,6.077,0.041,9.427c-3.297,0-6.404,0.088-9.504-0.035
		c-1.735-0.069-2.36,0.455-2.282,2.242c0.132,3.044,0.036,6.099,0.036,9.345c-3.74,0-7.368,0-11.237,0c0-7.605,0-15.245,0-23.265
		c-3.945,0-7.668-0.033-11.388,0.062c-0.301,0.008-0.828,0.888-0.832,1.366C117.503,91.066,117.52,98.418,117.52,106.182z"/>
	<path fill-rule="evenodd" clip-rule="evenodd" fill="#FFFFFF" d="M59.439,175.956c0-11.456,0-22.71,0-34.176
		c7.473,0,14.92,0,22.664,0c0,3.085,0.087,6.118-0.033,9.144c-0.072,1.824,0.493,2.52,2.392,2.431
		c3.025-0.141,6.062-0.038,9.239-0.038c0,7.662,0,15.056,0,22.64C82.316,175.956,71.012,175.956,59.439,175.956z"/>
	<path fill-rule="evenodd" clip-rule="evenodd" fill="#FFFFFF" d="M129.864,118.033c7.65,0,15.134,0,22.758,0
		c0,7.591,0,15.074,0,22.761c-7.501,0-15.04,0-22.758,0C129.864,133.318,129.864,125.777,129.864,118.033z"/>
	<path fill-rule="evenodd" clip-rule="evenodd" fill="#FFFFFF" d="M106.441,164.169c0-3.604,0-7.023,0-10.647
		c15.312,0,30.582,0,46.006,0c0,3.529,0,7.005,0,10.647C137.145,164.169,121.93,164.169,106.441,164.169z"/>
	<path fill-rule="evenodd" clip-rule="evenodd" fill="#FFFFFF" d="M35.781,117.301c0-7.6,0-15.076,0-22.715
		c7.601,0,15.132,0,22.824,0c0,3.642,0,7.262,0,11.163c-3.171,0-6.275,0.092-9.37-0.035c-1.761-0.072-2.329,0.507-2.255,2.261
		c0.127,3.038,0.036,6.086,0.036,9.326C43.282,117.301,39.66,117.301,35.781,117.301z"/>
	<path fill-rule="evenodd" clip-rule="evenodd" fill="#FFFFFF" d="M164.347,117.367c-3.79,0-7.356,0-11.04,0
		c0-3.696,0-7.265,0-11.014c3.625,0,7.248,0,11.04,0C164.347,109.964,164.347,113.585,164.347,117.367z"/>
</g>
</svg>
