<?xml version="1.0" encoding="utf-8"?>
<!-- Generator: Adobe Illustrator 16.0.0, SVG Export Plug-In . SVG Version: 6.00 Build 0)  -->
<!DOCTYPE svg PUBLIC "-//W3C//DTD SVG 1.1//EN" "http://www.w3.org/Graphics/SVG/1.1/DTD/svg11.dtd">
<svg version="1.1" id="Layer_1" xmlns="http://www.w3.org/2000/svg" xmlns:xlink="http://www.w3.org/1999/xlink" x="0px" y="0px"
	 width="200px" height="200px" viewBox="0 0 200 200" enable-background="new 0 0 200 200" xml:space="preserve">
<g>
	<path fill-rule="evenodd" clip-rule="evenodd" d="M135.439,164.5c0,8.117,0,15.845,0,23.865c-3.85,0-7.636,0-11.623,0
		c0,4.015,0,7.741,0,11.635c-15.825,0-31.441,0-47.283,0c0-3.75,0-7.478,0-11.511c-3.997,0-7.78,0-11.783,0
		c0-7.944,0-15.586,0-23.535c-3.998,0-7.781,0-11.71,0c-0.054-1.059-0.128-1.82-0.128-2.582
		c-0.008-10.183,0.059-20.366-0.057-30.548c-0.024-2.131,0.62-2.695,2.654-2.58c2.949,0.168,5.914,0.043,9.009,0.043
		c0-3.852,0-7.483,0-11.343c-3.807,0-7.531,0-11.478,0c0-3.942,0-7.669,0-11.702c-3.998,0-7.78,0-11.783,0c0-4.027,0-7.753,0-11.787
		c-3.998,0-7.781,0-11.719,0c-0.055-1.058-0.128-1.819-0.129-2.579c-0.007-14.1,0.041-28.199-0.056-42.298
		c-0.014-2.105,0.577-2.717,2.638-2.596c2.949,0.173,5.917,0.044,9.165,0.044c0-3.936,0-7.667,0-11.4
		c0-3.368,0.063-6.738-0.029-10.104c-0.041-1.521,0.428-2.079,1.993-2.028c3.126,0.101,6.259,0.03,9.788,0.03
		c0-3.025,0.142-5.971-0.046-8.896c-0.143-2.215,0.47-2.965,2.8-2.912c6.8,0.156,13.606,0.055,20.75,0.055
		c0-3.407,0.035-6.665-0.019-9.921C76.372,0.618,76.653-0.004,78.071,0c14.96,0.048,29.92,0.044,44.881,0.061
		c0.147,0,0.294,0.084,0.755,0.225c0,3.673,0,7.455,0,11.458c7.948,0,15.586,0,23.454,0c0,3.941,0,7.664,0,11.698
		c3.998,0,7.78,0,11.784,0c0,7.948,0,15.585,0,23.535c3.998,0,7.781,0,11.702,0c0,4.178,0,8.043,0,12.119c-3.829,0-7.556,0-11.57,0
		c0,11.82,0,23.436,0,35.257c-4.013,0-7.739,0-11.757,0c0,3.985,0,7.771,0,11.757c-4.014,0-7.74,0-11.675,0c0,3.93,0,7.654,0,11.674
		c-3.982,0-7.767,0-11.7,0c0,3.924,0,7.559,0,11.426c3.739,0,7.463,0,11.389,0c0,8.009,0,15.79,0,23.866c-3.706,0-7.491,0-11.407,0
		c0,3.925,0,7.559,0,11.425C127.725,164.5,131.445,164.5,135.439,164.5z M146.889,93.899c0-11.39-0.017-22.505,0.02-33.621
		c0.005-1.511-0.904-1.615-1.984-1.623c-2.428-0.018-4.856-0.054-7.283-0.008c-1.399,0.026-1.975-0.539-1.942-1.952
		c0.059-2.505-0.038-5.013,0.027-7.518c0.041-1.576-0.553-2.299-2.177-2.292c-6.578,0.032-13.157,0.037-19.735-0.003
		c-1.764-0.011-2.335,0.835-2.295,2.464c0.054,2.192-0.093,4.392,0.036,6.577c0.118,1.99-0.492,2.896-2.63,2.749
		c-2.182-0.15-4.386,0.042-6.575-0.049c-1.951-0.082-2.662,0.768-2.592,2.657c0.086,2.346-0.034,4.7,0.028,7.048
		c0.04,1.515-0.584,2.115-2.088,2.074c-2.347-0.064-4.699-0.054-7.047-0.005c-1.386,0.029-1.995-0.508-1.957-1.936
		c0.061-2.348-0.112-4.708,0.047-7.045c0.152-2.241-0.817-2.909-2.887-2.8c-2.109,0.111-4.228,0.013-6.343,0.026
		c-3.076,0.018-3.225,0.151-3.233,3.147c-0.016,5.795-0.084,11.593,0.035,17.386c0.045,2.167-0.496,3.191-2.861,3.003
		c-2.179-0.174-4.384,0.014-6.575-0.043c-1.71-0.045-2.401,0.713-2.363,2.396c0.055,2.426-0.041,4.856,0.019,7.283
		c0.037,1.501-0.555,2.127-2.073,2.09c-2.426-0.06-4.86-0.089-7.279,0.058c-0.642,0.039-1.76,0.749-1.778,1.188
		c-0.147,3.485-0.082,6.979-0.082,10.701c4.054,0,7.779,0,11.816,0c0,4.013,0,7.791,0,11.513c19.559,0,38.795,0,58.256,0
		c0-3.177,0.099-6.218-0.038-9.247c-0.084-1.844,0.473-2.491,2.367-2.399c3.091,0.149,6.193,0.04,9.294,0.04
		c0-3.942,0-7.513,0-11.408c-3.896,0-7.678,0-11.619,0c0-7.676-0.016-15.028,0.038-22.379c0.003-0.479,0.528-1.36,0.829-1.368
		c3.72-0.095,7.441-0.062,11.387-0.062c0,8.016,0,15.655,0,23.356C139.456,93.899,143.027,93.899,146.889,93.899z M111.455,164.403
		c0-7.752,0-15.29,0-22.768c-7.726,0-15.267,0-22.758,0c0,7.685,0,15.17,0,22.768C96.316,164.403,103.8,164.403,111.455,164.403z
		 M77.122,165.195c0,3.756,0,7.234,0,10.801c3.64,0,7.111,0,10.641,0c0-3.704,0-7.237,0-10.801
		C84.131,165.195,80.711,165.195,77.122,165.195z M123.013,176.04c0-3.758,0-7.29,0-10.757c-3.695,0-7.171,0-10.634,0
		c0,3.677,0,7.156,0,10.757C115.967,176.04,119.384,176.04,123.013,176.04z"/>
	<path fill-rule="evenodd" clip-rule="evenodd" fill="#FFFFFF" d="M146.889,93.899c-3.861,0-7.433,0-11.239,0
		c0-7.701,0-15.34,0-23.356c-3.945,0-7.667-0.033-11.387,0.062c-0.301,0.008-0.826,0.89-0.829,1.368
		c-0.054,7.351-0.038,14.703-0.038,22.379c3.941,0,7.723,0,11.619,0c0,3.895,0,7.465,0,11.408c-3.101,0-6.203,0.109-9.294-0.04
		c-1.895-0.092-2.451,0.556-2.367,2.399c0.137,3.029,0.038,6.07,0.038,9.247c-19.461,0-38.697,0-58.256,0c0-3.722,0-7.5,0-11.513
		c-4.037,0-7.762,0-11.816,0c0-3.722-0.065-7.216,0.082-10.701c0.019-0.439,1.137-1.149,1.778-1.188
		c2.419-0.147,4.854-0.118,7.279-0.058c1.518,0.037,2.11-0.589,2.073-2.09c-0.06-2.427,0.036-4.857-0.019-7.283
		c-0.039-1.683,0.653-2.442,2.363-2.396c2.191,0.058,4.396-0.13,6.575,0.043c2.365,0.188,2.906-0.836,2.861-3.003
		c-0.12-5.793-0.051-11.591-0.035-17.386c0.008-2.997,0.158-3.129,3.233-3.147c2.115-0.013,4.234,0.084,6.343-0.026
		c2.07-0.109,3.04,0.559,2.887,2.8c-0.159,2.338,0.014,4.697-0.047,7.045c-0.038,1.428,0.571,1.965,1.957,1.936
		c2.349-0.049,4.7-0.06,7.047,0.005c1.503,0.041,2.128-0.559,2.088-2.074c-0.063-2.348,0.058-4.702-0.028-7.048
		c-0.07-1.89,0.642-2.739,2.592-2.657c2.189,0.091,4.394-0.102,6.575,0.049c2.138,0.147,2.748-0.759,2.63-2.749
		c-0.129-2.186,0.018-4.385-0.036-6.577c-0.04-1.628,0.531-2.475,2.295-2.464c6.578,0.041,13.157,0.035,19.735,0.003
		c1.624-0.008,2.218,0.716,2.177,2.292c-0.065,2.504,0.031,5.013-0.027,7.518c-0.032,1.413,0.543,1.979,1.942,1.952
		c2.427-0.046,4.855-0.01,7.283,0.008c1.08,0.008,1.989,0.112,1.984,1.623C146.872,71.394,146.889,82.509,146.889,93.899z"/>
	<path fill-rule="evenodd" clip-rule="evenodd" fill="#FFFFFF" d="M111.455,164.403c-7.655,0-15.139,0-22.758,0
		c0-7.598,0-15.083,0-22.768c7.492,0,15.033,0,22.758,0C111.455,149.113,111.455,156.651,111.455,164.403z"/>
	<path fill-rule="evenodd" clip-rule="evenodd" fill="#FFFFFF" d="M77.122,165.195c3.59,0,7.009,0,10.641,0
		c0,3.563,0,7.097,0,10.801c-3.529,0-7,0-10.641,0C77.122,172.43,77.122,168.951,77.122,165.195z"/>
	<path fill-rule="evenodd" clip-rule="evenodd" fill="#FFFFFF" d="M123.013,176.04c-3.629,0-7.046,0-10.634,0
		c0-3.601,0-7.08,0-10.757c3.463,0,6.938,0,10.634,0C123.013,168.75,123.013,172.282,123.013,176.04z"/>
</g>
</svg>
