<?xml version="1.0" encoding="utf-8"?>
<!-- Generator: Adobe Illustrator 16.0.0, SVG Export Plug-In . SVG Version: 6.00 Build 0)  -->
<!DOCTYPE svg PUBLIC "-//W3C//DTD SVG 1.1//EN" "http://www.w3.org/Graphics/SVG/1.1/DTD/svg11.dtd">
<svg version="1.1" id="Layer_1" xmlns="http://www.w3.org/2000/svg" xmlns:xlink="http://www.w3.org/1999/xlink" x="0px" y="0px"
	 width="200px" height="200px" viewBox="0 0 200 200" enable-background="new 0 0 200 200" xml:space="preserve">
<g>
	<path fill-rule="evenodd" clip-rule="evenodd" d="M150.461,124.85c4.117,0,8.079,0,12.275,0c0,12.525,0,24.813,0,37.345
		c4.193,0,8.15,0,12.32,0c0,4.35,0,8.459,0,12.885c-3.96,0-7.985,0-12.228,0c0,4.268,0,8.23,0,12.502c-4.235,0-8.261,0-12.503,0
		c0,4.269,0,8.231,0,12.38c-8.497,0-16.773,0-25.292,0c0-3.97,0-7.933,0-12.222c-4.249,0-8.274,0-12.53,0c0-4.281,0-8.244,0-12.392
		c-4.102,0-7.969,0-12.151,0c0,3.969,0,7.995,0,12.235c-8.435,0-16.561,0-24.998,0c0,4.236,0,8.263,0,12.417
		c-8.587,0-16.862,0-25.378,0c0-4.104,0-8.065,0-12.261c-4.197,0-8.159,0-12.239,0c-0.125-0.762-0.293-1.31-0.294-1.858
		c-0.018-7.164,0.028-14.328-0.043-21.49c-0.016-1.617,0.46-2.208,2.121-2.154c3.325,0.107,6.656,0.032,10.194,0.032
		c0-3.968,0-7.834,0-12.031c-3.915,0-7.94,0-12.12,0c0-8.599,0-16.869,0-25.404c4.104,0,8.062,0,12.171,0c0-4.124,0-7.987,0-12.092
		c-4.018,0-7.98,0-12.267,0c0-4.25,0-8.276,0-12.532c-4.284,0-8.246,0-12.382,0c-0.072-0.946-0.174-1.667-0.174-2.387
		c-0.009-15.16,0.022-30.32-0.044-45.479c-0.008-1.894,0.396-2.688,2.473-2.575c3.227,0.177,6.47,0.047,10.058,0.047
		c0-2.217,0-4.265,0-6.313c0-5.33,0.121-10.665-0.056-15.99c-0.076-2.291,0.693-2.85,2.836-2.731
		c3.135,0.174,6.286,0.045,9.716,0.045c0-3.627,0.075-7.018-0.032-10.402c-0.052-1.66,0.534-2.138,2.152-2.122
		c7.489,0.069,14.979,0.03,22.821,0.03c0-4.139,0-8.156,0-12.331c16.891,0,33.43,0,50.305,0c0,3.988,0,8.01,0,12.271
		c8.451,0,16.574,0,25.026,0c0,4.251,0,8.273,0,12.531c4.286,0,8.245,0,12.447,0c0,8.36,0,16.48,0,24.936c4.252,0,8.274,0,12.455,0
		c0,4.442,0,8.552,0,12.888c-4.036,0-7.999,0-12.271,0c0,12.569,0,24.92,0,37.491c-4.269,0-8.23,0-12.37,0
		C150.461,108.367,150.461,116.395,150.461,124.85z M149.851,99.637c0-12.098,0.025-23.99-0.084-35.881
		c-0.005-0.531-1.211-1.456-1.908-1.507c-2.567-0.188-5.158-0.141-7.737-0.072c-1.631,0.043-2.217-0.635-2.171-2.23
		c0.075-2.662-0.032-5.33,0.027-7.993c0.035-1.587-0.626-2.284-2.207-2.279c-7.078,0.021-14.156,0.021-21.234,0.002
		c-1.56-0.004-2.29,0.681-2.274,2.255c0.024,2.58-0.077,5.165,0.013,7.743c0.063,1.798-0.556,2.599-2.437,2.511
		c-2.244-0.105-4.496-0.035-6.744-0.018c-3.119,0.023-3.302,0.197-3.33,3.204c-0.022,2.332-0.076,4.666,0.012,6.994
		c0.065,1.757-0.688,2.366-2.377,2.31c-2.412-0.082-4.83-0.076-7.243-0.004c-1.618,0.049-2.236-0.607-2.185-2.216
		c0.08-2.495-0.072-5,0.044-7.492c0.094-2.019-0.621-2.912-2.709-2.821c-2.411,0.106-4.829,0.008-7.244,0.026
		c-3.089,0.022-3.277,0.193-3.286,3.245c-0.019,6.246-0.082,12.492,0.033,18.736c0.041,2.219-0.559,3.225-2.939,3.039
		c-2.234-0.174-4.499,0.058-6.741-0.059c-2.206-0.114-2.969,0.852-2.877,2.965c0.106,2.41-0.045,4.831,0.04,7.242
		c0.062,1.739-0.653,2.38-2.359,2.329c-2.579-0.077-5.168-0.102-7.739,0.067c-0.64,0.042-1.734,0.888-1.755,1.4
		c-0.153,3.631-0.081,7.271-0.081,11.242c8.472,0,16.657,0,25.082,0c0,4.297,0,8.257,0,12.175c16.602,0,32.95,0,49.43,0
		c0-3.448,0.101-6.694-0.038-9.93c-0.081-1.886,0.556-2.471,2.415-2.396c3.296,0.134,6.601,0.037,9.928,0.037
		c0-4.181,0-8.035,0-12.144c-4.141,0-8.097,0-12.297,0c0-8.147-0.019-16.039,0.045-23.93c0.004-0.464,0.655-1.313,1.022-1.322
		c3.879-0.097,7.762-0.061,11.887-0.061c0,8.463,0,16.584,0,24.83C141.878,99.637,145.674,99.637,149.851,99.637z M50.454,149.54
		c8.269,0,16.286,0,24.296,0c0-8.164,0-16.121,0-24.177c-8.157,0-16.175,0-24.296,0C50.454,133.477,50.454,141.434,50.454,149.54z
		 M149.706,149.619c0-8.266,0-16.224,0-24.281c-8.174,0-16.196,0-24.254,0c0,4.021,0,7.885,0,12.067c4.179,0,8.203,0,12.468,0
		c0,4.275,0,8.232,0,12.214C141.975,149.619,145.771,149.619,149.706,149.619z M75.601,174.377c8.145,0,16.006,0,23.947,0
		c0-3.892,0-7.594,0-11.388c-8.075,0-15.99,0-23.947,0C75.601,166.888,75.601,170.531,75.601,174.377z M113.14,162.755
		c0,4.126,0,7.828,0,11.654c3.858,0,7.555,0,11.541,0c0-3.536,0.053-6.928-0.061-10.313c-0.016-0.46-0.842-1.265-1.313-1.281
		C119.995,162.702,116.678,162.755,113.14,162.755z"/>
	<path fill-rule="evenodd" clip-rule="evenodd" fill="#FFFFFF" d="M149.851,99.637c-4.177,0-7.973,0-12.021,0
		c0-8.246,0-16.367,0-24.83c-4.125,0-8.008-0.036-11.887,0.061c-0.367,0.01-1.019,0.858-1.022,1.322
		c-0.063,7.891-0.045,15.782-0.045,23.93c4.2,0,8.156,0,12.297,0c0,4.108,0,7.963,0,12.144c-3.327,0-6.632,0.097-9.928-0.037
		c-1.859-0.075-2.496,0.51-2.415,2.396c0.139,3.235,0.038,6.481,0.038,9.93c-16.479,0-32.828,0-49.43,0c0-3.918,0-7.878,0-12.175
		c-8.425,0-16.61,0-25.082,0c0-3.972-0.072-7.611,0.081-11.242c0.021-0.513,1.115-1.358,1.755-1.4
		c2.571-0.169,5.16-0.145,7.739-0.067c1.706,0.051,2.42-0.59,2.359-2.329c-0.085-2.411,0.066-4.832-0.04-7.242
		c-0.092-2.113,0.671-3.079,2.877-2.965c2.242,0.116,4.506-0.115,6.741,0.059c2.381,0.186,2.98-0.82,2.939-3.039
		c-0.115-6.244-0.052-12.49-0.033-18.736c0.009-3.052,0.197-3.223,3.286-3.245c2.415-0.019,4.833,0.08,7.244-0.026
		c2.089-0.091,2.804,0.803,2.709,2.821c-0.116,2.492,0.036,4.997-0.044,7.492c-0.051,1.608,0.567,2.265,2.185,2.216
		c2.413-0.072,4.831-0.078,7.243,0.004c1.689,0.057,2.443-0.553,2.377-2.31c-0.088-2.328-0.034-4.662-0.012-6.994
		c0.028-3.007,0.211-3.181,3.33-3.204c2.248-0.018,4.5-0.088,6.744,0.018c1.881,0.088,2.499-0.713,2.437-2.511
		c-0.09-2.578,0.012-5.163-0.013-7.743c-0.016-1.574,0.715-2.259,2.274-2.255c7.078,0.02,14.156,0.019,21.234-0.002
		c1.581-0.005,2.242,0.692,2.207,2.279c-0.06,2.663,0.048,5.331-0.027,7.993c-0.046,1.596,0.54,2.273,2.171,2.23
		c2.579-0.068,5.17-0.116,7.737,0.072c0.697,0.051,1.903,0.976,1.908,1.507C149.876,75.646,149.851,87.539,149.851,99.637z"/>
	<path fill-rule="evenodd" clip-rule="evenodd" fill="#FFFFFF" d="M50.454,149.54c0-8.106,0-16.063,0-24.177
		c8.121,0,16.139,0,24.296,0c0,8.056,0,16.013,0,24.177C66.74,149.54,58.723,149.54,50.454,149.54z"/>
	<path fill-rule="evenodd" clip-rule="evenodd" fill="#FFFFFF" d="M149.706,149.619c-3.936,0-7.731,0-11.786,0
		c0-3.981,0-7.938,0-12.214c-4.265,0-8.289,0-12.468,0c0-4.183,0-8.047,0-12.067c8.058,0,16.08,0,24.254,0
		C149.706,133.396,149.706,141.354,149.706,149.619z"/>
	<path fill-rule="evenodd" clip-rule="evenodd" fill="#FFFFFF" d="M75.601,174.377c0-3.846,0-7.489,0-11.388
		c7.957,0,15.872,0,23.947,0c0,3.794,0,7.496,0,11.388C91.607,174.377,83.745,174.377,75.601,174.377z"/>
	<path fill-rule="evenodd" clip-rule="evenodd" fill="#FFFFFF" d="M113.14,162.755c3.538,0,6.855-0.053,10.167,0.06
		c0.472,0.017,1.298,0.821,1.313,1.281c0.113,3.386,0.061,6.777,0.061,10.313c-3.986,0-7.683,0-11.541,0
		C113.14,170.583,113.14,166.881,113.14,162.755z"/>
</g>
</svg>
