<?xml version="1.0" encoding="utf-8"?>
<!-- Generator: Adobe Illustrator 16.0.0, SVG Export Plug-In . SVG Version: 6.00 Build 0)  -->
<!DOCTYPE svg PUBLIC "-//W3C//DTD SVG 1.1//EN" "http://www.w3.org/Graphics/SVG/1.1/DTD/svg11.dtd">
<svg version="1.1" id="Layer_1" xmlns="http://www.w3.org/2000/svg" xmlns:xlink="http://www.w3.org/1999/xlink" x="0px" y="0px"
	 width="200px" height="200px" viewBox="0 0 200 200" enable-background="new 0 0 200 200" xml:space="preserve">
<g>
	<path fill-rule="evenodd" clip-rule="evenodd" d="M87.802,175.351c0,4.107,0,8.004,0,12.211c-4.14,0-8.161,0-12.399,0
		c0,4.262,0,8.221,0,12.386c-8.487,0-16.755,0-25.354,0c0-3.955,0-7.977,0-12.229c-4.277,0-8.234,0-12.516,0
		c0-4.244,0-8.265,0-12.517c-4.279,0-8.235,0-12.533,0c0-4.027-0.063-7.825,0.085-11.616c0.018-0.448,1.186-1.193,1.841-1.218
		c3.394-0.123,6.796-0.057,10.545-0.057c0-1.056,0-1.935,0-2.813c0-10.65,0.07-21.3-0.056-31.948
		c-0.026-2.271,0.671-2.856,2.825-2.735c3.132,0.177,6.281,0.045,9.566,0.045c0-8.254,0-16.272,0-24.531c-4.042,0-7.999,0-12.278,0
		c0-12.569,0-24.906,0-37.478c-4.277,0-8.234,0-12.527,0c0-4.027-0.063-7.827,0.085-11.618c0.018-0.447,1.188-1.189,1.845-1.213
		c3.394-0.124,6.795-0.057,10.54-0.057c0-2.304,0-4.433,0-6.562c0-5.241,0.122-10.487-0.056-15.723
		c-0.078-2.289,0.693-2.845,2.833-2.727c3.132,0.173,6.281,0.044,9.707,0.044c0-3.621,0.074-7.008-0.032-10.389
		c-0.052-1.65,0.522-2.14,2.146-2.125c7.481,0.07,14.963,0.031,22.853,0.031c0-3.567,0.056-7.022-0.026-10.474
		C74.861,0.55,75.31-0.005,76.87,0c15.642,0.047,31.283,0.029,46.925,0.039c0.395,0,0.791,0.098,1.41,0.179
		c0,4.061,0,8.015,0,12.211c8.35,0,16.463,0,24.906,0c0,4.244,0,8.261,0,12.516c4.28,0,8.234,0,12.515,0c0,8.41,0,16.584,0,24.997
		c4.28,0,8.234,0,12.372,0c0,16.829,0,33.414,0,50.224c-3.971,0-7.93,0-12.092,0c0,8.237,0,16.257,0,24.613
		c3.908,0,7.926,0,12.106,0c0,8.598,0,16.863,0,25.353c-4.021,0-7.979,0-12.243,0c0,12.555,0,24.892,0,37.449
		c-4.26,0-8.218,0-12.485,0c0,4.229,0,8.252,0,12.42c-8.577,0-16.843,0-25.35,0c0-4.063,0-8.021,0-12.302
		c-8.409,0-16.586,0-24.997,0c0-4.277,0-8.233,0-12.348C95.837,175.351,91.977,175.351,87.802,175.351z M75.229,74.967
		c0.081-3.647,0.262-7.298,0.141-10.938c-0.02-0.597-1.341-1.573-2.125-1.642c-2.476-0.217-4.99-0.216-7.474-0.054
		c-2.258,0.148-2.918-0.761-2.789-2.897c0.15-2.485-0.004-4.987,0.037-7.481c0.025-1.476-0.64-2.136-2.086-2.13
		c-2.578,0.011-5.156-0.023-7.733-0.006c-3.141,0.021-3.438,0.255-3.372,3.453c0.129,6.129,0.46,12.256,0.529,18.386
		c0.095,8.48,0.023,16.962,0.023,25.443c0,0.876,0,1.752,0,2.629c4.176,0,7.969,0,12.033,0c0-1.023,0-1.914,0-2.804
		c0-6.486,0.085-12.973-0.048-19.457c-0.044-2.14,0.686-2.697,2.706-2.61c3.403,0.146,6.816,0.038,10.226,0.037
		c0,8.378,0,16.756,0,25.457c-4.251,0-8.271,0-12.223,0c0,4.184,0,8.041,0,12.143c4.166,0,8.123,0,12.322,0c0,4.207,0,8.163,0,12.15
		c20.75,0,41.245,0,61.916,0c0-3.25,0.128-6.324-0.043-9.383c-0.123-2.22,0.456-3.134,2.861-2.968
		c3.122,0.216,6.271,0.053,9.664,0.053c0-3.668-0.078-7.06,0.033-10.445c0.056-1.702-0.686-2.185-2.208-2.159
		c-2.412,0.041-4.828-0.073-7.237,0.024c-1.798,0.072-2.583-0.529-2.493-2.424c0.118-2.49-0.06-4.995,0.052-7.487
		c0.089-1.986-0.768-2.676-2.658-2.61c-2.327,0.081-4.665-0.095-6.986,0.047c-2.118,0.129-3.063-0.511-2.9-2.787
		c0.171-2.401-0.038-4.827,0.058-7.236c0.073-1.851-0.72-2.543-2.507-2.502c-2.745,0.063-5.492,0.064-8.237,0.003
		c-1.831-0.041-2.533,0.791-2.492,2.565c0.059,2.578-0.045,5.16,0.021,7.738c0.041,1.614-0.631,2.211-2.223,2.201
		c-6.656-0.046-13.314-0.04-19.97-0.005c-1.476,0.007-2.108-0.551-2.074-2.063c0.062-2.744-0.023-5.492,0.018-8.237
		c0.021-1.446-0.566-2.196-2.042-2.173C82.371,74.855,78.797,74.914,75.229,74.967z M50.502,149.611c8.205,0,16.214,0,24.183,0
		c0-8.196,0-16.203,0-24.191c-8.161,0-16.111,0-24.183,0C50.502,133.506,50.502,141.456,50.502,149.611z M150.461,125.391
		c0,8.292,0,16.301,0,24.251c4.009,0,7.8,0,11.64,0c0-8.165,0-16.172,0-24.251C158.132,125.391,154.34,125.391,150.461,125.391z
		 M100.619,162.796c0,4.104,0,7.804,0,11.563c8.067,0,15.978,0,24.03,0c0-3.474,0.063-6.716-0.061-9.95
		c-0.021-0.553-0.838-1.537-1.297-1.543C115.817,162.769,108.342,162.796,100.619,162.796z M87.199,174.442
		c0-3.551,0.05-6.792-0.049-10.027c-0.017-0.541-0.669-1.51-1.054-1.523c-3.454-0.119-6.914-0.07-10.446-0.07
		c0,4.073,0,7.772,0,11.621C79.493,174.442,83.186,174.442,87.199,174.442z"/>
	<path fill-rule="evenodd" clip-rule="evenodd" fill="#FFFFFF" d="M75.224,74.972c3.573-0.058,7.147-0.116,10.72-0.174
		c1.476-0.023,2.064,0.727,2.042,2.173c-0.041,2.746,0.044,5.493-0.018,8.237c-0.034,1.512,0.598,2.07,2.074,2.063
		c6.656-0.035,13.314-0.041,19.97,0.005c1.592,0.011,2.264-0.586,2.223-2.201c-0.065-2.578,0.038-5.16-0.021-7.738
		c-0.041-1.774,0.661-2.605,2.492-2.565c2.745,0.061,5.492,0.06,8.237-0.003c1.787-0.041,2.58,0.651,2.507,2.502
		c-0.096,2.41,0.113,4.835-0.058,7.236c-0.163,2.276,0.782,2.916,2.9,2.787c2.321-0.142,4.659,0.033,6.986-0.047
		c1.891-0.065,2.747,0.624,2.658,2.61c-0.111,2.492,0.066,4.997-0.052,7.487c-0.09,1.895,0.695,2.496,2.493,2.424
		c2.409-0.097,4.825,0.017,7.237-0.024c1.522-0.026,2.264,0.458,2.208,2.159c-0.111,3.386-0.033,6.777-0.033,10.445
		c-3.393,0-6.542,0.163-9.664-0.053c-2.405-0.166-2.984,0.748-2.861,2.968c0.171,3.059,0.043,6.133,0.043,9.383
		c-20.671,0-41.166,0-61.916,0c0-3.987,0-7.943,0-12.15c-4.2,0-8.156,0-12.322,0c0-4.103,0-7.959,0-12.143c3.951,0,7.972,0,12.223,0
		c0-8.701,0-17.079,0-25.457L75.224,74.972z"/>
	<path fill-rule="evenodd" clip-rule="evenodd" fill="#FFFFFF" d="M75.295,74.897c-3.409,0.001-6.823,0.108-10.226-0.037
		c-2.021-0.087-2.75,0.47-2.706,2.61c0.134,6.483,0.048,12.971,0.048,19.457c0,0.89,0,1.781,0,2.804c-4.064,0-7.856,0-12.033,0
		c0-0.877,0-1.753,0-2.629c0-8.481,0.071-16.963-0.023-25.443c-0.069-6.13-0.4-12.257-0.529-18.386
		c-0.067-3.198,0.231-3.433,3.372-3.453c2.578-0.017,5.155,0.017,7.733,0.006c1.447-0.006,2.111,0.654,2.086,2.13
		c-0.042,2.494,0.113,4.996-0.037,7.481c-0.129,2.136,0.53,3.045,2.789,2.897c2.484-0.162,4.999-0.163,7.474,0.054
		c0.784,0.069,2.105,1.045,2.125,1.642c0.122,3.64-0.06,7.291-0.143,10.94C75.224,74.972,75.295,74.897,75.295,74.897z"/>
	<path fill-rule="evenodd" clip-rule="evenodd" fill="#FFFFFF" d="M50.502,149.611c0-8.155,0-16.105,0-24.191
		c8.071,0,16.021,0,24.183,0c0,7.988,0,15.995,0,24.191C66.716,149.611,58.707,149.611,50.502,149.611z"/>
	<path fill-rule="evenodd" clip-rule="evenodd" fill="#FFFFFF" d="M150.461,125.391c3.879,0,7.671,0,11.64,0
		c0,8.079,0,16.086,0,24.251c-3.84,0-7.631,0-11.64,0C150.461,141.691,150.461,133.683,150.461,125.391z"/>
	<path fill-rule="evenodd" clip-rule="evenodd" fill="#FFFFFF" d="M100.619,162.796c7.723,0,15.199-0.027,22.672,0.069
		c0.459,0.006,1.275,0.99,1.297,1.543c0.124,3.234,0.061,6.477,0.061,9.95c-8.052,0-15.963,0-24.03,0
		C100.619,170.6,100.619,166.899,100.619,162.796z"/>
	<path fill-rule="evenodd" clip-rule="evenodd" fill="#FFFFFF" d="M87.199,174.442c-4.013,0-7.707,0-11.549,0
		c0-3.849,0-7.548,0-11.621c3.533,0,6.992-0.049,10.446,0.07c0.385,0.014,1.037,0.982,1.054,1.523
		C87.25,167.65,87.199,170.892,87.199,174.442z"/>
</g>
</svg>
