<?xml version="1.0" encoding="utf-8"?>
<!-- Generator: Adobe Illustrator 16.0.0, SVG Export Plug-In . SVG Version: 6.00 Build 0)  -->
<!DOCTYPE svg PUBLIC "-//W3C//DTD SVG 1.1//EN" "http://www.w3.org/Graphics/SVG/1.1/DTD/svg11.dtd">
<svg version="1.1" id="Layer_1" xmlns="http://www.w3.org/2000/svg" xmlns:xlink="http://www.w3.org/1999/xlink" x="0px" y="0px"
	 width="200px" height="200px" viewBox="0 0 200 200" enable-background="new 0 0 200 200" xml:space="preserve">
<g>
	<path fill-rule="evenodd" clip-rule="evenodd" d="M164.928,106.065c0,4.126,0,7.796,0,11.757c-3.898,0-7.684,0-11.669,0
		c0,23.601,0,46.909,0,70.511c-3.975,0-7.762,0-11.753,0c0,4.013,0,7.739,0,11.667c-11.908,0-23.609,0-35.62,0
		c0-3.702,0-7.489,0-11.493c-4.027,0-7.752,0-11.785,0c0-3.997,0-7.782,0-11.782c-11.864,0-23.42,0-35.2,0c0-3.942,0-7.669,0-11.701
		c-7.916,0-15.615,0-23.536,0c0-4.024,0-7.752,0-11.784c-3.997,0-7.783,0-11.853,0c0-2.234,0-4.17,0-6.104
		c0-5.248,0.06-10.498-0.034-15.744c-0.03-1.674,0.535-2.165,2.153-2.109c3.113,0.106,6.231,0.031,9.634,0.031
		c0-3.938,0-7.671,0-11.403c0-3.369,0.064-6.739-0.028-10.104c-0.042-1.522,0.43-2.078,1.993-2.027
		c3.127,0.101,6.26,0.029,9.588,0.029c0-3.729,0-7.364,0-11.311c-3.676,0-7.462,0-11.465,0c0-4.026,0-7.753,0-11.785
		c-3.999,0-7.781,0-11.708,0c-0.055-1.06-0.128-1.822-0.128-2.584c-0.008-10.183,0.059-20.367-0.058-30.549
		c-0.024-2.134,0.625-2.692,2.657-2.578c2.949,0.167,5.914,0.043,9.148,0.043c0-3.558,0-6.9,0-10.242
		c0-3.838,0.041-7.677-0.021-11.515c-0.021-1.321,0.436-1.797,1.764-1.77c3.206,0.067,6.414,0.022,10.01,0.022
		c0-3.116,0.122-6.139-0.043-9.146c-0.111-2.027,0.434-2.705,2.575-2.661c6.878,0.143,13.761,0.053,20.974,0.053
		c0-3.339,0.056-6.521-0.025-9.698C70.462,0.636,70.798-0.006,72.431,0c14.727,0.056,29.453,0.035,44.18,0.042
		c0.306,0,0.609,0.074,1.222,0.152c0,3.781,0,7.563,0,11.566c7.947,0,15.587,0,23.454,0c0,3.941,0,7.663,0,11.697
		c3.998,0,7.781,0,11.784,0c0,7.948,0,15.585,0,23.536c3.998,0,7.782,0,11.782,0c0,11.865,0,23.42,0,35.286c3.999,0,7.78,0,11.688,0
		c0,8.039,0,15.767,0,23.788C172.788,106.065,169.001,106.065,164.928,106.065z M59.062,94.091
		c0.077-3.419,0.236-6.841,0.147-10.256c-0.015-0.564-1.093-1.535-1.726-1.573c-2.795-0.174-5.611-0.14-8.412-0.021
		c-0.562,0.024-1.551,0.732-1.566,1.153c-0.127,3.477-0.072,6.959-0.072,10.631c4.083,0,7.887,0,11.691,0c0,3.877,0,7.753,0,11.859
		c4.126,0,7.85,0,11.882,0c0,4.008,0,7.785,0,11.518c15.631,0,30.944,0,46.203,0c0.121-0.266,0.236-0.4,0.238-0.537
		c0.029-2.111,0.058-4.224,0.061-6.336c0.008-4.748,0.002-4.748,4.635-4.748c2.315,0,4.631,0,7.074,0c0-4.152,0-7.974-0.002-11.797
		c3.878,0,7.756,0,11.798,0c0-3.565-0.05-6.839,0.022-10.111c0.032-1.457-0.775-1.696-1.913-1.697c-2.581,0-5.163,0.032-7.743-0.013
		c-1.603-0.027-2.262,0.711-2.228,2.276c0.07,3.204,0.089,6.408,0.13,9.613c-7.121-0.042-14.241-0.063-21.361-0.141
		c-1.771-0.02-2.316,0.852-2.283,2.472c0.051,2.425-0.027,4.853,0.014,7.279c0.022,1.35-0.458,2.019-1.901,2.012
		c-6.34-0.032-12.68-0.032-19.02,0.001c-1.417,0.008-1.949-0.578-1.92-1.971c0.055-2.582-0.022-5.166,0.015-7.748
		c0.02-1.374-0.565-2.037-1.942-2.026C73.607,93.989,66.332,94.041,59.062,94.091z M129.833,141.723c0,3.089-0.17,5.914,0.051,8.709
		c0.193,2.441-0.67,2.993-3.017,2.983c-21.543-0.089-43.087-0.053-64.63-0.053c-0.907,0-1.814,0-2.753,0c0,3.835,0,7.314,0,11.021
		c1.086,0,2.012,0,2.937,0c13.553,0,27.105-0.001,40.658,0.001c3.243,0,3.245,0.004,3.248,3.15c0.004,2.793,0.001,5.588,0.001,8.498
		c11.622,0,22.932,0,34.317,0c0-11.534,0-22.904,0-34.311C137.011,141.723,133.587,141.723,129.833,141.723z M58.632,129.89
		c-7.755,0-15.296,0-22.768,0c0,7.722,0,15.265,0,22.761c7.686,0,15.171,0,22.768,0C58.632,145.021,58.632,137.537,58.632,129.89z
		 M141.613,94.453c0,3.931,0,7.558,0,11.132c7.713,0,15.252,0,22.779,0c0-7.68,0-15.163,0-22.738c-3.757,0-7.382,0-11.308,0
		c0,3.922,0,7.704,0,11.605C149.12,94.453,145.455,94.453,141.613,94.453z"/>
	<path fill-rule="evenodd" clip-rule="evenodd" fill="#FFFFFF" d="M129.833,141.723c3.754,0,7.178,0,10.812,0
		c0,11.406,0,22.776,0,34.311c-11.386,0-22.695,0-34.317,0c0-2.91,0.003-5.705-0.001-8.498c-0.003-3.146-0.005-3.15-3.248-3.15
		c-13.552-0.002-27.104-0.001-40.658-0.001c-0.925,0-1.851,0-2.937,0c0-3.707,0-7.187,0-11.021c0.939,0,1.847,0,2.753,0
		c21.543,0,43.087-0.036,64.63,0.053c2.347,0.01,3.21-0.542,3.017-2.983C129.663,147.637,129.833,144.812,129.833,141.723z"/>
	<path fill-rule="evenodd" clip-rule="evenodd" fill="#FFFFFF" d="M129.217,93.985c0,3.822,0,7.644,0,11.796
		c-2.443,0-4.759,0-7.074,0c-4.633,0-4.627,0-4.635,4.748c-0.003,2.112-0.031,4.225-0.061,6.336
		c-0.002,0.137-0.117,0.271-0.238,0.537c-15.259,0-30.572,0-46.203,0c0-3.732,0-7.51,0-11.518c-4.032,0-7.755,0-11.882,0
		c0-4.105,0-7.982,0-11.859l-0.067,0.07c7.275-0.055,14.551-0.106,21.826-0.166c1.377-0.011,1.962,0.652,1.942,2.026
		c-0.038,2.582,0.04,5.166-0.015,7.748c-0.029,1.393,0.503,1.979,1.92,1.971c6.34-0.033,12.68-0.033,19.02-0.001
		c1.443,0.007,1.924-0.662,1.901-2.012c-0.041-2.426,0.037-4.854-0.014-7.279c-0.033-1.62,0.512-2.491,2.283-2.472
		c7.12,0.078,14.24,0.099,21.361,0.141L129.217,93.985z"/>
	<path fill-rule="evenodd" clip-rule="evenodd" fill="#FFFFFF" d="M58.632,129.89c0,7.647,0,15.132,0,22.761
		c-7.597,0-15.083,0-22.768,0c0-7.496,0-15.039,0-22.761C43.336,129.89,50.877,129.89,58.632,129.89z"/>
	<path fill-rule="evenodd" clip-rule="evenodd" fill="#FFFFFF" d="M141.613,94.453c3.842,0,7.507,0,11.472,0
		c0-3.901,0-7.684,0-11.605c3.926,0,7.551,0,11.308,0c0,7.575,0,15.058,0,22.738c-7.527,0-15.066,0-22.779,0
		C141.613,102.011,141.613,98.383,141.613,94.453z"/>
	<path fill-rule="evenodd" clip-rule="evenodd" fill="#FFFFFF" d="M59.124,94.026c-3.805,0-7.609,0-11.691,0
		c0-3.672-0.056-7.155,0.072-10.631c0.016-0.421,1.005-1.129,1.566-1.153c2.801-0.119,5.617-0.153,8.412,0.021
		c0.633,0.039,1.711,1.009,1.726,1.573c0.089,3.415-0.07,6.837-0.149,10.259C59.057,94.096,59.124,94.026,59.124,94.026z"/>
	<path fill-rule="evenodd" clip-rule="evenodd" fill="#FFFFFF" d="M129.281,94.053c-0.041-3.205-0.06-6.41-0.13-9.613
		c-0.034-1.564,0.625-2.303,2.228-2.276c2.58,0.044,5.162,0.012,7.743,0.013c1.138,0,1.945,0.24,1.913,1.697
		c-0.072,3.271-0.022,6.546-0.022,10.111c-4.042,0-7.92,0-11.797,0.001C129.217,93.985,129.281,94.053,129.281,94.053z"/>
</g>
</svg>
