<?xml version="1.0" encoding="utf-8"?>
<!-- Generator: Adobe Illustrator 16.0.0, SVG Export Plug-In . SVG Version: 6.00 Build 0)  -->
<!DOCTYPE svg PUBLIC "-//W3C//DTD SVG 1.1//EN" "http://www.w3.org/Graphics/SVG/1.1/DTD/svg11.dtd">
<svg version="1.1" id="Layer_1" xmlns="http://www.w3.org/2000/svg" xmlns:xlink="http://www.w3.org/1999/xlink" x="0px" y="0px"
	 width="200px" height="200px" viewBox="0 0 200 200" enable-background="new 0 0 200 200" xml:space="preserve">
<g>
	<path fill-rule="evenodd" clip-rule="evenodd" d="M177.717,144.658c-3.711,0-7.176,0-10.916,0c0,3.684,0,7.259,0,11.025
		c-3.791,0-7.311,0-11.102,0c0,11.162,0,22.131,0,33.295c-3.789,0-7.309,0-11.102,0c0,3.762,0,7.338,0,11.021
		c-11.324,0-22.371,0-33.635,0c0-3.646,0-7.165,0-10.821c-7.346,0-14.476,0-21.806,0c0,3.541,0,7.061,0,10.767
		c-11.246,0-22.295,0-33.638,0c0-3.509,0-7.085,0-10.865c-3.803,0-7.322,0-11.126,0c0-11.175,0-22.144,0-33.321
		c-3.803,0-7.32,0-11.046,0c0-3.725,0-7.244,0-11.053c-3.774,0-7.347,0-11.063,0c0-7.636,0-14.98,0-22.561c3.637,0,7.151,0,10.95,0
		c0-3.157,0.083-6.092-0.033-9.02c-0.064-1.617,0.375-2.243,2.091-2.166c2.932,0.133,5.874,0.037,9.04,0.037
		c0-3.1,0.118-5.97-0.041-8.825c-0.106-1.92,0.611-2.395,2.401-2.308c2.796,0.135,5.603,0.036,8.571,0.036c0-3.565,0-6.997,0-10.648
		c-3.484,0-7.002,0-10.812,0c0-3.773,0-7.345,0-11.124c-3.805,0-7.324,0-11.04,0c-0.07-0.827-0.169-1.461-0.17-2.096
		c-0.01-9.838,0.028-19.677-0.041-29.514c-0.012-1.639,0.425-2.219,2.112-2.143c2.876,0.128,5.762,0.035,9.02,0.035
		c0-0.866,0-1.639,0-2.413c0-5.695,0.093-11.394-0.049-17.086c-0.052-2.083,0.44-2.899,2.65-2.743
		c2.713,0.192,5.45,0.046,8.497,0.046c0-3.071,0.111-6.004-0.041-8.924c-0.095-1.825,0.573-2.237,2.276-2.21
		c5.768,0.093,11.539,0.035,17.309,0.035c0.796,0,1.592,0,2.653,0c0-3.283,0.042-6.366-0.02-9.446
		C77.58,0.421,78.021-0.003,79.271,0c13.98,0.034,27.961,0.023,41.941,0.033c0.283,0,0.566,0.083,1.057,0.161
		c0,3.544,0,7.059,0,10.868c7.479,0,14.746,0,22.227,0c0,3.804,0,7.32,0,11.128c3.777,0,7.348,0,11.127,0c0,7.505,0,14.719,0,22.149
		c3.723,0,7.238,0,10.945,0c0,11.263,0,22.31,0,33.634c-3.502,0-7.078,0-10.846,0c0,3.79,0,7.309,0,11.103c-3.76,0-7.336,0-11.029,0
		c0,3.708,0,7.14,0,10.79c3.592,0,7.109,0,10.914,0c0,3.775,0,7.349,0,11.128c3.807,0,7.324,0,11.055,0c0,3.723,0,7.238,0,11.047
		c3.775,0,7.348,0,11.055,0C177.717,129.686,177.717,137.033,177.717,144.658z M133.107,88.8c-6.723-0.04-13.447-0.059-20.17-0.133
		c-1.674-0.018-2.188,0.805-2.156,2.334c0.047,2.29-0.025,4.583,0.012,6.873c0.021,1.275-0.432,1.906-1.795,1.899
		c-5.986-0.03-11.973-0.03-17.959,0.001c-1.338,0.007-1.841-0.546-1.813-1.861c0.051-2.438-0.021-4.878,0.014-7.317
		c0.02-1.296-0.534-1.923-1.833-1.912c-6.87,0.056-13.739,0.105-20.604,0.152c0.072-3.229,0.223-6.46,0.139-9.685
		c-0.014-0.533-1.032-1.449-1.63-1.486c-2.64-0.164-5.298-0.132-7.943-0.019c-0.53,0.022-1.464,0.691-1.479,1.088
		c-0.121,3.283-0.068,6.572-0.068,10.04c3.855,0,7.447,0,11.04,0c0,3.661,0,7.322,0,11.198c3.896,0,7.412,0,11.22,0
		c0,3.784,0,7.35,0,10.874c14.761,0,29.221,0,43.629,0c0.115-0.25,0.223-0.377,0.225-0.507c0.027-1.993,0.055-3.988,0.057-5.982
		c0.008-4.482,0.004-4.482,4.375-4.482c2.188,0,4.375,0,6.682,0c0-3.921,0-7.53-0.002-11.14c3.662,0,7.324,0,11.141,0
		c0-3.367-0.047-6.458,0.021-9.548c0.031-1.375-0.732-1.602-1.807-1.602c-2.438,0-4.875,0.03-7.311-0.012
		c-1.516-0.026-2.137,0.671-2.104,2.149C133.051,82.748,133.07,85.774,133.107,88.8z M56.106,144.906c0,10.947,0,21.634,0,32.388
		c10.843,0,21.524,0,32.44,0c0-2.888,0.098-5.612-0.033-8.326c-0.094-1.95,0.413-2.758,2.567-2.707
		c5.989,0.142,11.984,0.106,17.976,0.015c1.807-0.028,2.504,0.49,2.412,2.37c-0.137,2.853-0.035,5.716-0.035,8.655
		c10.992,0,21.672,0,32.393,0c0-10.902,0-21.64,0-32.3c-3.5,0-6.785,0-10.197,0c0,2.927-0.104,5.665,0.035,8.39
		c0.096,1.873-0.381,2.564-2.424,2.557c-20.789-0.074-41.577-0.077-62.365,0.004c-2.144,0.008-2.652-0.73-2.558-2.682
		c0.133-2.77,0.034-5.552,0.034-8.363C62.731,144.906,59.499,144.906,56.106,144.906z M33.714,144.138c3.627,0,6.999,0,10.449,0
		c0-7.248,0-14.365,0-21.504c-3.572,0-6.996,0-10.449,0C33.714,129.864,33.714,136.932,33.714,144.138z M166.199,144.171
		c0-7.357,0-14.475,0-21.577c-3.557,0-6.926,0-10.373,0c0,7.242,0,14.362,0,21.577C159.336,144.171,162.705,144.171,166.199,144.171
		z"/>
	<path fill-rule="evenodd" clip-rule="evenodd" fill="#FFFFFF" d="M56.106,144.906c3.392,0,6.625,0,10.245,0
		c0,2.812,0.1,5.594-0.034,8.363c-0.094,1.951,0.414,2.689,2.558,2.682c20.788-0.081,41.576-0.078,62.365-0.004
		c2.043,0.008,2.52-0.684,2.424-2.557c-0.139-2.725-0.035-5.463-0.035-8.39c3.412,0,6.697,0,10.197,0c0,10.66,0,21.397,0,32.3
		c-10.721,0-21.4,0-32.393,0c0-2.939-0.102-5.803,0.035-8.655c0.092-1.88-0.605-2.398-2.412-2.37
		c-5.992,0.092-11.987,0.127-17.976-0.015c-2.154-0.051-2.661,0.757-2.567,2.707c0.131,2.714,0.033,5.438,0.033,8.326
		c-10.917,0-21.597,0-32.44,0C56.106,166.54,56.106,155.854,56.106,144.906z"/>
	<path fill-rule="evenodd" clip-rule="evenodd" fill="#FFFFFF" d="M66.797,88.841c6.87-0.051,13.739-0.101,20.609-0.156
		c1.3-0.011,1.853,0.616,1.833,1.912c-0.035,2.439,0.037,4.879-0.014,7.317c-0.028,1.315,0.475,1.869,1.813,1.861
		c5.987-0.032,11.973-0.032,17.959-0.001c1.363,0.007,1.816-0.624,1.795-1.899c-0.037-2.291,0.035-4.583-0.012-6.873
		c-0.031-1.53,0.482-2.353,2.156-2.334c6.723,0.074,13.447,0.093,20.17,0.133l-0.061-0.063c0,3.609,0,7.218,0,11.139
		c-2.307,0-4.494,0-6.682,0c-4.371,0-4.367,0-4.375,4.482c-0.002,1.994-0.029,3.989-0.057,5.982
		c-0.002,0.13-0.109,0.257-0.225,0.507c-14.408,0-28.868,0-43.629,0c0-3.524,0-7.09,0-10.874c-3.808,0-7.323,0-11.22,0
		c0-3.876,0-7.538,0-11.198L66.797,88.841z"/>
	<path fill-rule="evenodd" clip-rule="evenodd" fill="#FFFFFF" d="M33.714,144.138c0-7.206,0-14.273,0-21.504
		c3.453,0,6.877,0,10.449,0c0,7.139,0,14.256,0,21.504C40.712,144.138,37.341,144.138,33.714,144.138z"/>
	<path fill-rule="evenodd" clip-rule="evenodd" fill="#FFFFFF" d="M166.199,144.171c-3.494,0-6.863,0-10.373,0
		c0-7.215,0-14.335,0-21.577c3.447,0,6.816,0,10.373,0C166.199,129.696,166.199,136.813,166.199,144.171z"/>
	<path fill-rule="evenodd" clip-rule="evenodd" fill="#FFFFFF" d="M66.86,88.775c-3.592,0-7.185,0-11.04,0
		c0-3.468-0.053-6.757,0.068-10.04c0.015-0.397,0.949-1.066,1.479-1.088c2.646-0.113,5.304-0.145,7.943,0.019
		c0.598,0.037,1.616,0.953,1.63,1.486c0.084,3.225-0.067,6.456-0.141,9.687C66.797,88.841,66.86,88.775,66.86,88.775z"/>
	<path fill-rule="evenodd" clip-rule="evenodd" fill="#FFFFFF" d="M133.107,88.8c-0.037-3.025-0.057-6.052-0.121-9.077
		c-0.033-1.478,0.588-2.175,2.104-2.149c2.436,0.042,4.873,0.011,7.311,0.012c1.074,0,1.838,0.227,1.807,1.602
		c-0.068,3.089-0.021,6.181-0.021,9.548c-3.816,0-7.479,0-11.139,0C133.047,88.737,133.107,88.8,133.107,88.8z"/>
</g>
</svg>
